<svg
 xmlns="http://www.w3.org/2000/svg"
 xmlns:xlink="http://www.w3.org/1999/xlink"
 width="9px" height="25px">
<path fill-rule="evenodd" d="M8.528,2.164 L7.680,2.164 L7.680,0.482 C7.680,0.215 7.468,-0.001 7.208,-0.001 L1.523,-0.001 C1.263,-0.001 1.052,0.215 1.052,0.482 L1.052,2.164 L0.471,2.164 C0.211,2.164 -0.000,2.381 -0.000,2.648 L-0.000,5.006 C-0.000,5.274 0.211,5.490 0.471,5.490 L1.000,5.490 L1.000,21.409 C1.000,23.388 2.570,24.999 4.500,24.999 C6.429,24.999 7.999,23.388 7.999,21.409 L7.999,5.490 L8.528,5.490 C8.789,5.490 9.000,5.274 9.000,5.006 L9.000,2.648 C9.000,2.381 8.789,2.164 8.528,2.164 ZM2.277,1.208 L6.454,1.208 L6.454,2.019 L2.277,2.019 L2.277,1.208 ZM4.500,23.741 C3.090,23.741 2.226,22.653 2.226,21.409 L2.226,11.947 L6.774,11.947 L6.774,21.409 C6.774,22.444 5.910,23.741 4.500,23.741 ZM6.774,10.689 L2.226,10.689 L2.226,5.731 L6.774,5.731 L6.774,10.689 ZM7.774,4.378 L1.225,4.378 L1.225,3.276 L7.774,3.276 L7.774,4.378 Z"/>
</svg>