<svg xmlns="http://www.w3.org/2000/svg" viewBox="0 0 15 16.78"><path d="M20.3,17.19a7.49,7.49,0,0,0-2.85-1.78,4.33,4.33,0,0,0,1.63-2.12c.17-.46.12-5,.12-5.71a2,2,0,0,0-1.89-1.86H12.69a2,2,0,0,0-1.84,1.87c0,.91-.09,5.28.08,5.75a4.41,4.41,0,0,0,1.62,2.07A7.49,7.49,0,0,0,7.5,22.5H8.67a6.33,6.33,0,0,1,12.66,0H22.5A7.45,7.45,0,0,0,20.3,17.19ZM12,7.66c0-.69.71-.9,1.34-.9l3.26,0c.61,0,1.32.29,1.32.87,0,.23,0,.93,0,1.72H12C12,8.58,12,7.91,12,7.66ZM15,15a3.15,3.15,0,0,1-2.75-1.61A21.15,21.15,0,0,1,12,10.25H18a25.23,25.23,0,0,1-.12,2.93A3.18,3.18,0,0,1,15,15Z" transform="translate(-7.5 -5.72)"/></svg>