<svg
 xmlns="http://www.w3.org/2000/svg"
 xmlns:xlink="http://www.w3.org/1999/xlink"
 width="17px" height="17px">
<path d="M11.272,8.488 L16.400,13.616 C17.173,14.389 17.173,15.640 16.400,16.413 C15.629,17.186 14.376,17.186 13.603,16.413 L8.475,11.285 L3.347,16.413 C2.574,17.186 1.321,17.186 0.550,16.413 C-0.223,15.640 -0.223,14.389 0.550,13.616 L5.678,8.488 L0.550,3.360 C-0.223,2.587 -0.223,1.335 0.550,0.563 C1.321,-0.210 2.574,-0.210 3.347,0.563 L8.475,5.691 L13.603,0.563 C14.376,-0.210 15.629,-0.210 16.400,0.563 C17.173,1.335 17.173,2.587 16.400,3.360 L11.272,8.488 Z"/>
</svg>