<svg
 xmlns="http://www.w3.org/2000/svg"
 xmlns:xlink="http://www.w3.org/1999/xlink"
 width="19px" height="19px">
<path d="M9.501,19.003 C4.264,19.003 0.003,14.740 0.003,9.500 C0.003,4.260 4.264,-0.003 9.501,-0.003 C14.739,-0.003 19.000,4.260 19.000,9.500 C19.000,14.740 14.739,19.003 9.501,19.003 ZM9.501,1.184 C4.918,1.184 1.190,4.914 1.190,9.500 C1.190,14.085 4.918,17.815 9.501,17.815 C14.084,17.815 17.812,14.085 17.812,9.500 C17.812,4.914 14.084,1.184 9.501,1.184 ZM8.908,13.658 L10.095,13.658 L10.095,14.846 L8.908,14.846 L8.908,13.658 ZM8.908,4.154 L10.095,4.154 L10.095,12.470 L8.908,12.470 L8.908,4.154 Z"/>
</svg>