<svg
 xmlns="http://www.w3.org/2000/svg"
 xmlns:xlink="http://www.w3.org/1999/xlink"
 width="21px" height="21px">
<path d="M10.500,-0.000 C4.701,-0.000 -0.000,4.113 -0.000,9.187 C-0.000,12.087 1.539,14.669 3.937,16.352 L3.937,20.999 L8.537,18.208 C9.174,18.314 9.829,18.375 10.500,18.375 C16.299,18.375 21.000,14.261 21.000,9.187 C21.000,4.113 16.299,-0.000 10.500,-0.000 ZM10.500,17.062 C9.733,17.062 8.993,16.973 8.282,16.821 L5.192,18.678 L5.233,15.635 C2.865,14.210 1.312,11.855 1.312,9.187 C1.312,4.838 5.426,1.312 10.500,1.312 C15.574,1.312 19.687,4.838 19.687,9.187 C19.687,13.536 15.574,17.062 10.500,17.062 Z"/>
</svg>