<svg
 xmlns="http://www.w3.org/2000/svg"
 xmlns:xlink="http://www.w3.org/1999/xlink"
 width="9px" height="20px">
<path d="M8.453,17.842 L8.178,18.984 C7.351,19.315 6.690,19.566 6.199,19.740 C5.706,19.914 5.134,20.000 4.482,20.000 C3.481,20.000 2.702,19.751 2.147,19.258 C1.592,18.762 1.314,18.133 1.314,17.371 C1.314,17.076 1.334,16.773 1.376,16.463 C1.418,16.154 1.486,15.805 1.577,15.415 L2.611,11.707 C2.703,11.352 2.781,11.016 2.843,10.698 C2.907,10.381 2.937,10.090 2.937,9.829 C2.937,9.355 2.841,9.024 2.648,8.838 C2.456,8.652 2.088,8.558 1.543,8.558 C1.276,8.558 1.001,8.601 0.721,8.685 C0.440,8.769 0.200,8.851 -0.002,8.926 L0.274,7.783 C0.952,7.504 1.599,7.264 2.218,7.066 C2.837,6.866 3.421,6.767 3.975,6.767 C4.969,6.767 5.736,7.010 6.275,7.498 C6.813,7.985 7.083,8.617 7.083,9.396 C7.083,9.557 7.065,9.841 7.027,10.247 C6.990,10.654 6.921,11.026 6.820,11.365 L5.791,15.059 C5.707,15.355 5.630,15.694 5.565,16.076 C5.497,16.455 5.465,16.745 5.465,16.939 C5.465,17.430 5.572,17.764 5.788,17.943 C6.006,18.120 6.382,18.209 6.915,18.209 C7.164,18.209 7.449,18.164 7.765,18.075 C8.081,17.987 8.311,17.909 8.453,17.842 ZM8.714,2.336 C8.714,2.979 8.475,3.529 7.995,3.980 C7.515,4.434 6.937,4.661 6.261,4.661 C5.583,4.661 5.004,4.434 4.519,3.980 C4.035,3.529 3.792,2.979 3.792,2.336 C3.792,1.693 4.035,1.143 4.519,0.685 C5.004,0.228 5.583,-0.000 6.261,-0.000 C6.937,-0.000 7.515,0.229 7.995,0.685 C8.475,1.143 8.714,1.694 8.714,2.336 Z"/>
</svg>