<svg
 xmlns="http://www.w3.org/2000/svg"
 xmlns:xlink="http://www.w3.org/1999/xlink"
 width="15px" height="19px">
<path d="M13.125,18.999 L1.875,18.999 C0.841,18.999 -0.000,18.159 -0.000,17.124 L-0.000,9.374 C-0.000,8.340 0.841,7.499 1.875,7.499 L2.500,7.499 L2.500,4.999 C2.500,2.242 4.742,-0.001 7.500,-0.001 C10.257,-0.001 12.500,2.242 12.500,4.999 L12.500,7.499 L13.125,7.499 C14.158,7.499 15.000,8.340 15.000,9.374 L15.000,17.124 C15.000,18.159 14.158,18.999 13.125,18.999 ZM11.250,4.999 C11.250,2.932 9.567,1.249 7.500,1.249 C5.432,1.249 3.750,2.932 3.750,4.999 L3.750,7.499 L11.250,7.499 L11.250,4.999 ZM13.750,9.374 C13.750,9.029 13.469,8.749 13.125,8.749 L1.875,8.749 C1.531,8.749 1.250,9.029 1.250,9.374 L1.250,17.124 C1.250,17.469 1.531,17.749 1.875,17.749 L13.125,17.749 C13.469,17.749 13.750,17.469 13.750,17.124 L13.750,9.374 Z"/>
</svg>