<svg
 xmlns="http://www.w3.org/2000/svg"
 xmlns:xlink="http://www.w3.org/1999/xlink"
 width="18px" height="22px">
<path d="M15.607,21.731 C15.032,21.937 14.421,22.023 13.813,21.987 C13.209,21.955 12.616,21.807 12.065,21.550 C10.916,21.002 10.057,19.978 10.025,18.554 C10.022,17.917 10.215,17.294 10.576,16.775 C10.992,16.181 11.521,15.680 12.131,15.303 L12.216,15.248 C12.463,15.113 12.690,14.946 12.892,14.749 C12.958,14.661 12.856,14.504 12.430,14.155 C12.307,14.062 12.237,13.913 12.246,13.758 C12.259,13.504 12.472,13.309 12.719,13.322 L12.914,13.347 C14.698,13.580 16.006,14.325 16.859,15.284 C17.677,16.171 18.089,17.374 17.989,18.591 L17.989,18.675 C17.854,20.086 16.921,21.283 15.607,21.731 ZM17.103,18.495 C17.176,17.538 16.849,16.594 16.203,15.899 C15.554,15.196 14.722,14.698 13.807,14.463 C13.882,14.766 13.802,15.089 13.593,15.318 C13.338,15.604 13.038,15.844 12.707,16.030 L12.621,16.084 C12.115,16.395 11.674,16.807 11.328,17.296 C11.073,17.660 10.937,18.096 10.937,18.543 C10.957,19.561 11.596,20.308 12.449,20.713 C12.894,20.922 13.375,21.042 13.864,21.067 C14.354,21.097 14.845,21.027 15.309,20.862 C16.300,20.524 17.002,19.620 17.103,18.556 L17.103,18.495 ZM7.294,21.993 L1.713,21.993 L1.713,22.004 C0.771,22.004 0.008,21.222 0.008,20.258 L0.008,1.746 C0.008,0.781 0.771,-0.001 1.713,-0.001 L7.294,-0.001 C8.236,-0.001 8.999,0.781 8.999,1.746 L8.999,20.246 C8.999,21.211 8.236,21.993 7.294,21.993 ZM8.087,1.746 C8.085,1.298 7.731,0.936 7.294,0.934 L1.711,0.934 C1.274,0.935 0.919,1.298 0.918,1.746 L0.920,7.447 C1.164,7.314 1.436,7.244 1.713,7.244 L2.197,7.244 L2.197,5.432 C2.194,5.200 2.281,4.977 2.438,4.812 C2.575,4.671 2.755,4.582 2.947,4.561 L2.947,2.534 C2.947,2.164 3.240,1.864 3.602,1.864 L6.778,1.864 C7.140,1.864 7.433,2.164 7.433,2.534 L7.433,3.456 C7.433,3.826 7.140,4.126 6.778,4.126 L6.271,4.126 L6.271,4.563 C6.464,4.585 6.643,4.673 6.780,4.814 C6.941,4.977 7.032,5.199 7.032,5.432 L7.032,7.244 L7.294,7.244 C7.571,7.244 7.843,7.313 8.087,7.447 L8.087,1.746 ZM5.821,3.211 L6.529,3.211 L6.529,2.789 L3.851,2.789 L3.851,4.547 L5.369,4.547 L5.369,3.674 C5.369,3.418 5.571,3.211 5.821,3.211 ZM6.132,5.480 L6.130,5.480 L3.090,5.480 L3.090,7.244 L6.132,7.244 L6.132,5.480 ZM8.087,8.975 C8.085,8.528 7.731,8.165 7.294,8.163 L1.713,8.163 C1.712,8.163 1.712,8.163 1.711,8.163 C1.272,8.164 0.917,8.530 0.918,8.980 L0.918,9.849 L8.087,9.849 L8.087,8.975 ZM8.087,10.783 L0.918,10.783 L0.918,20.258 C0.921,20.705 1.277,21.065 1.713,21.065 L7.294,21.065 C7.731,21.063 8.085,20.700 8.087,20.253 L8.087,10.783 Z"/>
</svg>