<svg
 xmlns="http://www.w3.org/2000/svg"
 xmlns:xlink="http://www.w3.org/1999/xlink"
 width="17px" height="13px">
<path d="M15.406,-0.000 L1.594,-0.000 C0.715,-0.000 -0.000,0.729 -0.000,1.625 L-0.000,11.375 C-0.000,12.271 0.715,13.000 1.594,13.000 L15.406,13.000 C16.285,13.000 17.000,12.271 17.000,11.375 L17.000,1.625 C17.000,0.729 16.285,-0.000 15.406,-0.000 ZM15.406,1.083 C15.478,1.083 15.547,1.099 15.610,1.125 L8.500,7.408 L1.390,1.125 C1.453,1.099 1.522,1.083 1.594,1.083 L15.406,1.083 ZM15.406,11.917 L1.594,11.917 C1.301,11.917 1.062,11.674 1.062,11.375 L1.062,2.270 L8.152,8.534 C8.252,8.623 8.376,8.667 8.500,8.667 C8.624,8.667 8.748,8.623 8.848,8.534 L15.937,2.270 L15.937,11.375 C15.937,11.674 15.699,11.917 15.406,11.917 Z"/>
</svg>