<svg
 xmlns="http://www.w3.org/2000/svg"
 xmlns:xlink="http://www.w3.org/1999/xlink"
 width="17px" height="17px">
<path d="M8.500,17.000 C13.194,17.000 17.000,13.194 17.000,8.500 C17.000,3.805 13.194,-0.000 8.500,-0.000 C3.806,-0.000 -0.000,3.805 -0.000,8.500 C0.005,13.192 3.808,16.995 8.500,17.000 ZM0.850,8.500 C0.852,7.891 0.927,7.285 1.074,6.694 L4.603,9.666 L3.127,13.938 C1.670,12.504 0.849,10.545 0.850,8.500 ZM10.211,5.494 C10.271,5.635 10.402,5.732 10.554,5.749 L15.120,6.262 L11.626,9.204 C11.492,9.318 11.441,9.502 11.498,9.668 L12.942,13.847 L8.603,12.763 C8.535,12.746 8.464,12.746 8.397,12.763 L4.058,13.847 L5.502,9.668 C5.559,9.502 5.508,9.318 5.374,9.204 L1.880,6.262 L6.446,5.749 C6.598,5.732 6.729,5.635 6.789,5.494 L8.500,1.504 L10.211,5.494 ZM4.065,14.722 L8.500,13.613 L12.934,14.722 C10.285,16.626 6.715,16.626 4.065,14.722 ZM13.873,13.938 L12.397,9.666 L15.926,6.694 C16.575,9.302 15.793,12.058 13.873,13.938 ZM15.512,5.451 L10.895,4.932 L9.159,0.883 C11.953,1.128 14.390,2.880 15.512,5.451 ZM7.841,0.883 L6.105,4.932 L1.488,5.451 C2.610,2.880 5.047,1.128 7.841,0.883 Z"/>
</svg>