<svg
 xmlns="http://www.w3.org/2000/svg"
 xmlns:xlink="http://www.w3.org/1999/xlink"
 width="15px" height="15px">
<path d="M12.803,9.697 C11.986,8.880 11.014,8.275 9.953,7.909 C11.089,7.126 11.836,5.817 11.836,4.336 C11.836,1.945 9.891,-0.000 7.500,-0.000 C5.109,-0.000 3.164,1.945 3.164,4.336 C3.164,5.817 3.911,7.126 5.047,7.909 C3.986,8.275 3.014,8.880 2.197,9.697 C0.780,11.113 -0.000,12.996 -0.000,15.000 L1.172,15.000 C1.172,11.511 4.011,8.672 7.500,8.672 C10.989,8.672 13.828,11.511 13.828,15.000 L15.000,15.000 C15.000,12.996 14.220,11.113 12.803,9.697 ZM7.500,7.500 C5.755,7.500 4.336,6.080 4.336,4.336 C4.336,2.591 5.755,1.172 7.500,1.172 C9.245,1.172 10.664,2.591 10.664,4.336 C10.664,6.080 9.245,7.500 7.500,7.500 Z"/>
</svg>