<svg
 xmlns="http://www.w3.org/2000/svg"
 xmlns:xlink="http://www.w3.org/1999/xlink"
 width="18px" height="17px">
<path d="M17.413,9.080 L7.483,9.080 L9.611,11.181 C9.840,11.408 9.840,11.775 9.611,12.001 C9.496,12.114 9.346,12.170 9.196,12.170 C9.045,12.170 8.895,12.114 8.781,12.000 L5.652,8.911 C5.597,8.857 5.553,8.792 5.523,8.720 C5.501,8.667 5.495,8.611 5.489,8.555 C5.487,8.536 5.478,8.519 5.478,8.500 C5.478,8.487 5.485,8.477 5.485,8.464 C5.489,8.401 5.499,8.338 5.523,8.278 C5.552,8.210 5.594,8.149 5.646,8.096 C5.648,8.094 5.648,8.092 5.650,8.090 L8.781,4.999 C9.010,4.772 9.382,4.772 9.611,4.999 C9.840,5.225 9.840,5.592 9.611,5.819 L7.482,7.920 L17.413,7.920 C17.737,7.920 18.000,8.180 18.000,8.500 C18.000,8.820 17.737,9.080 17.413,9.080 ZM16.290,6.142 C15.989,6.258 15.648,6.114 15.529,5.815 C14.401,2.987 11.684,1.159 8.609,1.159 C4.509,1.159 1.174,4.453 1.174,8.500 C1.174,12.547 4.509,15.841 8.609,15.841 C11.684,15.841 14.401,14.013 15.529,11.186 C15.647,10.887 15.988,10.742 16.290,10.858 C16.591,10.976 16.740,11.313 16.621,11.610 C15.315,14.884 12.170,17.000 8.609,17.000 C3.862,17.000 -0.000,13.186 -0.000,8.500 C-0.000,3.813 3.862,0.000 8.609,0.000 C12.170,0.000 15.315,2.116 16.621,5.391 C16.740,5.688 16.591,6.024 16.290,6.142 Z"/>
</svg>