<svg
 xmlns="http://www.w3.org/2000/svg"
 xmlns:xlink="http://www.w3.org/1999/xlink"
 width="14px" height="19px">
<path fill-rule="evenodd" d="M13.403,9.720 C13.219,10.158 12.857,10.839 12.595,11.237 L7.795,18.528 C7.599,18.827 7.308,18.997 6.998,18.997 C6.687,18.997 6.397,18.827 6.200,18.528 L1.401,11.237 C1.139,10.839 0.776,10.158 0.592,9.720 C0.568,9.662 -0.002,8.293 -0.002,7.019 C-0.002,3.149 3.138,0.001 6.998,0.001 C10.857,0.001 13.997,3.149 13.997,7.019 C13.997,8.293 13.427,9.663 13.403,9.720 ZM6.998,0.827 C3.592,0.827 0.822,3.604 0.822,7.019 C0.822,8.122 1.344,9.383 1.351,9.400 C1.515,9.792 1.854,10.425 2.089,10.783 L6.888,18.073 C6.983,18.218 7.013,18.218 7.108,18.073 L11.907,10.783 C12.142,10.425 12.480,9.793 12.644,9.400 C12.650,9.387 13.173,8.123 13.173,7.019 C13.173,3.604 10.403,0.827 6.998,0.827 ZM6.998,10.734 C4.954,10.734 3.292,9.067 3.292,7.019 C3.292,4.971 4.954,3.303 6.998,3.303 C9.041,3.303 10.703,4.971 10.703,7.019 C10.703,9.067 9.041,10.734 6.998,10.734 ZM6.998,4.130 C5.409,4.130 4.116,5.425 4.116,7.019 C4.116,8.612 5.409,9.908 6.998,9.908 C8.586,9.908 9.880,8.612 9.880,7.019 C9.880,5.425 8.586,4.130 6.998,4.130 Z"/>
</svg>