<svg
 xmlns="http://www.w3.org/2000/svg"
 xmlns:xlink="http://www.w3.org/1999/xlink"
 width="32px" height="29px">
<path fill-rule="evenodd" stroke-width="1px" stroke="currentColor" fill-opacity="0"
 d="M6.500,3.500 L25.500,3.500 C27.157,3.500 28.500,4.843 28.500,6.500 L28.500,22.500 C28.500,24.157 27.157,25.500 25.500,25.500 L6.500,25.500 C4.843,25.500 3.500,24.157 3.500,22.500 L3.500,6.500 C3.500,4.843 4.843,3.500 6.500,3.500 Z"/>
<path fill-rule="evenodd" fill="currentColor"
 d="M3.500,9.499 L3.500,8.499 L28.500,8.499 L28.500,9.499 L3.500,9.499 ZM21.500,1.499 L22.500,1.499 L22.500,6.499 L21.500,6.499 L21.500,1.499 ZM9.500,1.499 L10.500,1.499 L10.500,6.499 L9.500,6.499 L9.500,1.499 Z"/>
</svg>