<svg
 xmlns="http://www.w3.org/2000/svg"
 xmlns:xlink="http://www.w3.org/1999/xlink"
 width="16px" height="16px">
<path d="M15.559,11.856 L13.041,9.319 C12.468,8.740 11.540,8.739 10.967,9.317 C10.966,9.318 10.965,9.319 10.965,9.319 L9.521,10.778 C9.412,10.888 9.240,10.903 9.113,10.813 C8.323,10.256 7.583,9.629 6.903,8.939 C6.294,8.325 5.733,7.663 5.226,6.960 C5.135,6.833 5.148,6.658 5.258,6.548 L6.737,5.053 C7.308,4.475 7.308,3.539 6.737,2.961 L4.218,0.416 C3.637,-0.145 2.723,-0.145 2.143,0.416 L1.344,1.222 C0.139,2.426 -0.291,4.213 0.233,5.841 C0.624,7.033 1.176,8.164 1.874,9.201 C2.502,10.153 3.223,11.039 4.025,11.846 C4.898,12.734 5.865,13.523 6.908,14.197 C8.054,14.953 9.314,15.519 10.638,15.873 C10.977,15.957 11.327,15.999 11.678,15.999 C12.879,15.992 14.028,15.503 14.874,14.641 L15.559,13.948 C16.131,13.370 16.131,12.433 15.559,11.856 ZM14.924,13.329 C14.924,13.331 14.923,13.331 14.923,13.332 L14.928,13.318 L14.241,14.011 C13.361,14.913 12.077,15.284 10.857,14.989 C9.628,14.657 8.459,14.128 7.396,13.422 C6.408,12.784 5.493,12.039 4.666,11.199 C3.905,10.436 3.222,9.599 2.626,8.699 C1.975,7.731 1.458,6.676 1.093,5.565 C0.675,4.260 1.021,2.827 1.990,1.865 L2.788,1.059 C3.010,0.834 3.370,0.833 3.593,1.057 C3.594,1.058 3.594,1.058 3.595,1.059 L6.114,3.604 C6.337,3.828 6.338,4.192 6.116,4.417 C6.115,4.418 6.115,4.419 6.114,4.419 L4.635,5.914 C4.210,6.338 4.157,7.012 4.509,7.499 C5.044,8.241 5.636,8.939 6.280,9.587 C6.998,10.315 7.778,10.978 8.611,11.565 C9.092,11.905 9.746,11.848 10.162,11.430 L11.592,9.962 C11.815,9.737 12.174,9.737 12.397,9.961 C12.397,9.962 12.398,9.962 12.399,9.962 L14.923,12.517 C15.146,12.741 15.147,13.105 14.924,13.329 Z"/>
</svg>