<svg
 xmlns="http://www.w3.org/2000/svg"
 xmlns:xlink="http://www.w3.org/1999/xlink"
 width="16px" height="28px">
<path d="M14.299,27.999 L1.701,27.999 C0.763,27.999 -0.000,27.243 -0.000,26.312 L-0.000,22.866 L-0.000,3.266 L-0.000,1.686 C-0.000,0.756 0.763,-0.001 1.701,-0.001 L14.299,-0.001 C15.237,-0.001 16.000,0.756 16.000,1.686 L16.000,3.266 L16.000,22.866 L16.000,26.313 C16.000,27.243 15.237,27.999 14.299,27.999 ZM1.701,27.066 L14.299,27.066 C14.718,27.066 15.059,26.728 15.059,26.312 L15.059,23.332 L0.941,23.332 L0.941,26.313 C0.941,26.728 1.281,27.066 1.701,27.066 ZM15.059,3.733 L0.941,3.733 L0.941,22.399 L15.059,22.399 L15.059,3.733 ZM14.299,0.932 L1.701,0.932 C1.281,0.932 0.941,1.271 0.941,1.686 L0.941,2.799 L15.059,2.799 L15.059,1.686 C15.059,1.271 14.718,0.932 14.299,0.932 ZM13.647,2.332 L13.176,2.332 C12.917,2.332 12.706,2.123 12.706,1.866 C12.706,1.608 12.917,1.399 13.176,1.399 L13.647,1.399 C13.906,1.399 14.117,1.608 14.117,1.866 C14.117,2.123 13.906,2.332 13.647,2.332 ZM10.353,2.332 L5.647,2.332 C5.387,2.332 5.176,2.123 5.176,1.866 C5.176,1.608 5.387,1.399 5.647,1.399 L10.353,1.399 C10.612,1.399 10.823,1.608 10.823,1.866 C10.823,2.123 10.612,2.332 10.353,2.332 ZM7.416,23.799 L8.584,23.799 C9.299,23.799 9.882,24.377 9.882,25.086 L9.882,25.312 C9.882,26.021 9.299,26.599 8.584,26.599 L7.415,26.599 C6.700,26.599 6.117,26.021 6.117,25.312 L6.117,25.086 C6.117,24.377 6.700,23.799 7.416,23.799 ZM7.059,25.312 C7.059,25.507 7.218,25.666 7.416,25.666 L8.584,25.666 C8.781,25.666 8.941,25.507 8.941,25.312 L8.941,25.086 C8.941,24.891 8.781,24.733 8.584,24.733 L7.416,24.733 C7.218,24.733 7.059,24.891 7.059,25.086 L7.059,25.312 Z"/>
</svg>