<svg
 xmlns="http://www.w3.org/2000/svg"
 xmlns:xlink="http://www.w3.org/1999/xlink"
 width="23px" height="19px">
<path d="M22.907,9.580 C22.760,9.871 22.465,10.051 22.136,10.051 L21.264,10.051 C21.038,15.023 16.878,19.000 11.796,19.000 C9.998,19.000 8.248,18.499 6.733,17.550 C6.514,17.413 6.368,17.185 6.338,16.930 C6.308,16.675 6.395,16.420 6.576,16.236 L7.817,14.974 C8.089,14.697 8.516,14.636 8.857,14.825 C9.759,15.326 10.776,15.591 11.796,15.591 C14.977,15.591 17.590,13.143 17.812,10.051 L16.966,10.051 C16.637,10.051 16.342,9.871 16.195,9.580 C16.048,9.289 16.080,8.947 16.277,8.687 L18.862,5.278 C19.026,5.062 19.277,4.937 19.551,4.937 C19.825,4.937 20.076,5.062 20.240,5.278 L22.826,8.687 C23.023,8.947 23.054,9.289 22.907,9.580 ZM17.016,3.014 L15.774,4.276 C15.502,4.553 15.076,4.614 14.735,4.425 C13.832,3.924 12.816,3.659 11.796,3.659 C8.615,3.659 6.001,6.107 5.780,9.199 L6.626,9.199 C6.954,9.199 7.250,9.379 7.396,9.670 C7.543,9.960 7.512,10.302 7.315,10.562 L4.730,13.972 C4.566,14.188 4.314,14.312 4.041,14.312 C3.767,14.312 3.516,14.188 3.351,13.972 L0.766,10.562 C0.569,10.302 0.538,9.960 0.685,9.670 C0.832,9.379 1.127,9.199 1.456,9.199 L2.327,9.199 C2.553,4.226 6.714,0.250 11.796,0.250 C13.593,0.250 15.344,0.751 16.859,1.700 C17.078,1.837 17.223,2.065 17.254,2.320 C17.254,2.320 17.254,2.320 17.254,2.320 C17.254,2.320 17.254,2.320 17.254,2.320 C17.284,2.575 17.197,2.830 17.016,3.014 Z"/>
</svg>