<svg
 xmlns="http://www.w3.org/2000/svg"
 xmlns:xlink="http://www.w3.org/1999/xlink"
 width="26px" height="26px">
<path d="M13.000,22.750 C12.169,22.750 11.358,22.674 10.570,22.544 L4.875,26.000 L4.875,20.246 C1.905,18.162 -0.000,14.965 -0.000,11.375 C-0.000,5.093 5.821,-0.000 13.000,-0.000 C20.180,-0.000 26.000,5.093 26.000,11.375 C26.000,17.657 20.180,22.750 13.000,22.750 ZM13.000,1.625 C6.718,1.625 1.625,5.990 1.625,11.375 C1.625,14.678 3.547,17.594 6.480,19.358 L6.428,23.126 L10.254,20.827 C11.134,21.014 12.051,21.125 13.000,21.125 C19.282,21.125 24.375,16.759 24.375,11.375 C24.375,5.990 19.282,1.625 13.000,1.625 ZM16.718,13.016 L16.645,13.016 C16.030,13.016 15.530,12.516 15.530,11.901 C15.530,11.286 16.030,10.787 16.645,10.787 L16.718,10.787 C17.333,10.787 17.832,11.286 17.832,11.901 C17.832,12.516 17.333,13.016 16.718,13.016 ZM12.696,13.016 L12.624,13.016 C12.008,13.016 11.509,12.516 11.509,11.901 C11.509,11.286 12.008,10.787 12.624,10.787 L12.696,10.787 C13.312,10.787 13.811,11.286 13.811,11.901 C13.811,12.516 13.312,13.016 12.696,13.016 ZM8.675,13.016 L8.602,13.016 C7.987,13.016 7.488,12.516 7.488,11.901 C7.488,11.286 7.987,10.787 8.602,10.787 L8.675,10.787 C9.290,10.787 9.790,11.286 9.790,11.901 C9.790,12.516 9.290,13.016 8.675,13.016 Z"/>
</svg>