<svg
 xmlns="http://www.w3.org/2000/svg"
 xmlns:xlink="http://www.w3.org/1999/xlink"
 width="23px" height="22px">
<path fill-rule="evenodd" d="M21.748,20.536 L16.379,15.169 C17.714,13.563 18.518,11.503 18.518,9.258 C18.518,4.153 14.364,0.000 9.259,0.000 C4.153,0.000 -0.001,4.153 -0.001,9.258 C-0.001,14.362 4.153,18.515 9.259,18.515 C11.504,18.515 13.565,17.712 15.170,16.377 L20.539,21.745 C20.706,21.912 20.925,21.996 21.144,21.996 C21.363,21.996 21.582,21.912 21.748,21.745 C22.083,21.412 22.083,20.870 21.748,20.536 ZM1.710,9.258 C1.710,5.096 5.096,1.711 9.259,1.711 C13.421,1.711 16.807,5.096 16.807,9.258 C16.807,13.419 13.421,16.805 9.259,16.805 C5.096,16.805 1.710,13.419 1.710,9.258 Z"/>
</svg>