<svg
 xmlns="http://www.w3.org/2000/svg"
 xmlns:xlink="http://www.w3.org/1999/xlink"
 width="12px" height="12px">
<path d="M10.002,8.487 C9.494,8.487 9.038,8.665 8.691,8.952 L3.935,6.448 C3.972,6.313 3.995,6.172 3.995,6.027 C3.995,5.882 3.972,5.741 3.935,5.605 L8.640,3.126 C8.997,3.428 9.474,3.614 10.002,3.614 C11.106,3.614 12.003,2.804 12.003,1.807 C12.003,0.810 11.106,-0.000 10.002,-0.000 C8.897,-0.000 8.000,0.810 8.000,1.807 C8.000,1.952 8.023,2.093 8.059,2.229 L3.355,4.708 C2.998,4.406 2.521,4.220 1.993,4.220 C0.889,4.220 -0.009,5.030 -0.009,6.027 C-0.009,7.024 0.889,7.834 1.993,7.834 C2.521,7.834 2.998,7.647 3.355,7.346 L8.110,9.849 C8.076,9.976 8.056,10.108 8.056,10.244 C8.056,11.214 8.927,12.000 10.002,12.000 C11.076,12.000 11.947,11.214 11.947,10.244 C11.947,9.274 11.076,8.487 10.002,8.487 Z"/>
</svg>