<svg
 xmlns="http://www.w3.org/2000/svg"
 xmlns:xlink="http://www.w3.org/1999/xlink"
 width="22px" height="25px">
<path fill-rule="evenodd" d="M20.981,5.858 L17.878,5.858 C17.473,2.563 14.543,-0.001 11.000,-0.001 C7.457,-0.001 4.527,2.563 4.122,5.858 L1.018,5.858 C0.456,5.858 -0.000,6.296 -0.000,6.835 L-0.000,24.022 C-0.000,24.562 0.456,24.999 1.018,24.999 L20.981,24.999 C21.544,24.999 22.000,24.562 22.000,24.022 L22.000,6.835 C22.000,6.296 21.544,5.858 20.981,5.858 ZM11.000,1.951 C13.418,1.951 15.431,3.644 15.821,5.858 L6.179,5.858 C6.568,3.644 8.582,1.951 11.000,1.951 ZM19.963,23.046 L2.037,23.046 L2.037,7.811 L4.074,7.811 L4.074,10.741 C4.074,11.280 4.530,11.717 5.092,11.717 C5.655,11.717 6.111,11.280 6.111,10.741 L6.111,7.811 L15.889,7.811 L15.889,10.741 C15.889,11.280 16.345,11.717 16.907,11.717 C17.470,11.717 17.926,11.280 17.926,10.741 L17.926,7.811 L19.963,7.811 L19.963,23.046 Z"/>
</svg>