<svg
 xmlns="http://www.w3.org/2000/svg"
 xmlns:xlink="http://www.w3.org/1999/xlink"
 width="19px" height="19px">
<path fill-rule="evenodd" d="M9.500,18.999 C4.262,18.999 -0.000,14.737 -0.000,9.499 C-0.000,4.261 4.262,-0.001 9.500,-0.001 C14.738,-0.001 19.000,4.261 19.000,9.499 C19.000,14.737 14.738,18.999 9.500,18.999 ZM9.500,1.187 C4.916,1.187 1.187,4.916 1.187,9.499 C1.187,14.083 4.916,17.812 9.500,17.812 C14.083,17.812 17.812,14.083 17.812,9.499 C17.812,4.916 14.083,1.187 9.500,1.187 ZM8.906,9.745 L8.906,3.562 L10.094,3.562 L10.094,9.253 L13.482,12.642 L12.643,13.481 L8.906,9.745 Z"/>
</svg>