<svg
 xmlns="http://www.w3.org/2000/svg"
 xmlns:xlink="http://www.w3.org/1999/xlink"
 width="25px" height="25px">
<path d="M12.500,24.999 C10.221,24.999 7.998,24.383 6.057,23.214 L1.102,24.737 C0.936,24.788 0.754,24.745 0.627,24.624 C0.501,24.501 0.451,24.321 0.497,24.151 C0.507,24.117 1.399,20.846 1.893,19.116 C0.653,17.133 -0.000,14.851 -0.000,12.500 C-0.000,5.606 5.607,-0.001 12.500,-0.001 C19.393,-0.001 25.000,5.606 25.000,12.500 C25.000,19.392 19.393,24.999 12.500,24.999 ZM12.500,0.961 C6.138,0.961 0.961,6.138 0.961,12.500 C0.961,14.738 1.603,16.910 2.817,18.779 C2.893,18.895 2.915,19.039 2.876,19.173 C2.545,20.327 1.974,22.402 1.656,23.562 L5.982,22.231 C6.028,22.216 6.076,22.209 6.124,22.209 C6.213,22.209 6.302,22.234 6.379,22.283 C8.211,23.430 10.327,24.037 12.500,24.037 C18.862,24.037 24.038,18.862 24.038,12.500 C24.038,6.138 18.862,0.961 12.500,0.961 ZM16.085,20.065 C15.619,20.065 15.122,20.025 14.591,19.946 C9.925,19.246 6.265,14.936 4.839,11.230 C3.540,7.852 6.274,5.065 6.391,4.948 C6.458,4.881 6.544,4.835 6.636,4.817 C7.601,4.624 8.233,4.668 8.513,4.948 C8.792,5.227 10.336,7.991 10.336,8.653 C10.336,9.295 10.022,9.860 9.151,10.757 C9.276,11.495 10.131,12.579 11.490,13.712 C12.820,14.820 14.160,15.581 14.446,15.626 C14.693,15.575 15.538,14.646 16.186,13.674 C16.204,13.648 16.224,13.624 16.247,13.601 C16.426,13.420 16.899,13.201 17.522,13.512 C17.745,13.623 18.050,13.821 18.471,14.097 C19.022,14.457 19.778,14.952 20.665,15.444 C20.844,15.543 20.940,15.743 20.906,15.943 C20.450,18.684 18.829,20.065 16.085,20.065 ZM17.945,14.901 C17.566,14.654 17.265,14.459 17.093,14.371 C17.008,14.328 16.950,14.317 16.914,14.316 C16.307,15.211 15.241,16.586 14.423,16.586 C13.483,16.586 8.173,13.093 8.173,10.577 C8.173,10.449 8.223,10.326 8.313,10.236 C9.293,9.257 9.375,8.906 9.375,8.653 C9.325,8.267 8.191,6.126 7.864,5.670 C7.707,5.646 7.331,5.672 6.975,5.732 C6.536,6.228 4.790,8.423 5.737,10.884 C6.692,13.366 9.800,18.255 14.734,18.995 C18.543,19.567 19.540,17.831 19.897,16.114 C19.111,15.664 18.445,15.230 17.945,14.901 Z"/>
</svg>