<svg
 xmlns="http://www.w3.org/2000/svg"
 xmlns:xlink="http://www.w3.org/1999/xlink"
 width="18px" height="19px">
<path fill-rule="evenodd" d="M9.000,-0.001 C13.970,-0.001 18.000,4.028 18.000,8.999 C18.000,13.969 13.970,17.999 9.000,17.999 C6.740,17.999 3.521,17.351 -0.000,18.999 C2.021,15.999 -0.000,11.710 -0.000,8.999 C-0.000,4.028 4.029,-0.001 9.000,-0.001 Z"/>
<path fill-rule="evenodd" fill="rgb(255, 255, 255)" d="M10.511,11.441 C10.313,11.398 9.260,10.759 8.479,10.065 C7.773,9.404 7.243,8.601 7.243,8.601 C7.700,8.013 7.745,7.023 7.438,6.187 C7.061,5.187 5.983,4.494 4.932,4.954 C4.032,5.348 3.730,6.838 4.037,7.675 C4.343,8.511 5.277,10.237 6.761,11.723 C8.100,13.013 11.036,15.093 12.534,14.567 C13.608,14.161 14.031,12.812 13.533,11.672 C13.295,11.129 12.314,10.523 11.619,10.568 C11.022,10.700 10.611,11.397 10.511,11.441 Z"/>
</svg>