<svg xmlns="http://www.w3.org/2000/svg" xmlns:xlink="http://www.w3.org/1999/xlink" viewBox="0 0 55.99 55.99"><defs><linearGradient id="a" x1="39.73" y1="48.11" x2="79.33" y2="8.52" gradientUnits="userSpaceOnUse"><stop offset="0" stop-color="#fd5"/><stop offset="0.5" stop-color="#ff543e"/><stop offset="1" stop-color="#c837ab"/></linearGradient></defs><path d="M87.52,28.32a28,28,0,1,1-28-28A28,28,0,0,1,87.52,28.32Z" transform="translate(-31.53 -0.32)" fill="url(#a)"/><path d="M59.44,14.16c-6.06,0-11.82-.54-14,5.11-.91,2.33-.78,5.36-.78,9.69,0,3.81-.12,7.38.78,9.69,2.19,5.65,8,5.11,14,5.11,5.8,0,11.79.61,14-5.11.91-2.35.77-5.33.77-9.69,0-5.78.32-9.51-2.48-12.32s-6.68-2.48-12.32-2.48Zm-1.33,2.67c12.65,0,14.26-1.43,13.37,18.11-.31,6.91-5.57,6.15-12,6.15-11.79,0-12.13-.34-12.13-12.13,0-11.94.94-12.12,10.8-12.13Zm9.23,2.46a1.78,1.78,0,1,0,1.77,1.77A1.78,1.78,0,0,0,67.34,19.29Zm-7.9,2.07A7.6,7.6,0,1,0,67,29a7.6,7.6,0,0,0-7.6-7.6Zm0,2.67c6.52,0,6.53,9.86,0,9.86S52.91,24,59.44,24Z" transform="translate(-31.53 -0.32)" fill="#fff"/></svg>