<svg
 xmlns="http://www.w3.org/2000/svg"
 xmlns:xlink="http://www.w3.org/1999/xlink"
 width="33px" height="32px">
<path fill-rule="evenodd"  fill="rgb(39, 170, 153)"
 d="M30.394,3.018 C28.659,1.162 26.261,0.078 23.730,0.004 C21.199,-0.070 18.743,0.872 16.903,2.623 L16.486,3.021 C12.870,-0.840 6.831,-1.018 2.996,2.621 C-0.838,6.260 -1.016,12.340 2.600,16.200 L3.540,17.203 C3.143,18.128 3.270,19.196 3.872,20.001 C4.474,20.806 5.459,21.223 6.452,21.095 C6.284,21.975 6.546,22.883 7.158,23.536 C7.769,24.188 8.655,24.505 9.538,24.387 C9.370,25.267 9.632,26.175 10.244,26.827 C10.855,27.479 11.740,27.796 12.623,27.678 C12.404,28.874 12.974,30.076 14.035,30.657 C15.095,31.239 16.407,31.068 17.287,30.235 C20.425,27.252 20.327,27.401 20.623,26.898 C21.542,27.353 22.634,27.263 23.466,26.663 C24.298,26.064 24.735,25.053 24.604,24.031 C25.479,24.196 26.379,23.930 27.026,23.314 C27.672,22.699 27.987,21.809 27.873,20.921 C29.068,21.142 30.268,20.560 30.841,19.481 C31.414,18.403 31.229,17.075 30.383,16.198 C33.866,12.506 33.870,6.716 30.394,3.018 ZM4.874,19.489 C4.231,18.802 4.262,17.721 4.943,17.072 L7.803,14.353 C8.487,13.717 9.552,13.754 10.191,14.436 C10.830,15.118 10.804,16.190 10.134,16.840 L7.274,19.559 C6.592,20.206 5.518,20.175 4.874,19.489 ZM7.960,22.781 C7.317,22.094 7.348,21.012 8.029,20.363 L10.889,17.645 C11.571,16.997 12.646,17.029 13.289,17.716 C13.933,18.402 13.902,19.484 13.219,20.132 L10.359,22.851 C9.676,23.496 8.603,23.464 7.960,22.778 L7.960,22.781 ZM11.045,26.073 C10.403,25.385 10.434,24.304 11.115,23.656 L13.975,20.937 C14.662,20.331 15.702,20.380 16.329,21.048 C16.957,21.716 16.946,22.764 16.306,23.420 L13.446,26.138 C12.764,26.787 11.690,26.756 11.045,26.070 L11.045,26.073 ZM16.532,29.434 C16.090,29.853 15.460,30.004 14.879,29.829 C14.298,29.654 13.854,29.179 13.714,28.585 C13.574,27.991 13.759,27.367 14.201,26.948 L17.061,24.229 C17.744,23.593 18.809,23.630 19.448,24.311 C20.087,24.993 20.062,26.066 19.391,26.716 L16.532,29.434 ZM29.540,19.404 C29.214,19.716 28.777,19.884 28.326,19.871 C27.876,19.858 27.449,19.665 27.141,19.334 L19.812,11.516 C19.603,11.294 19.255,11.283 19.034,11.493 C18.813,11.703 18.803,12.054 19.011,12.276 L26.342,20.094 C26.759,20.538 26.908,21.172 26.734,21.757 C26.561,22.342 26.090,22.789 25.500,22.930 C24.909,23.071 24.289,22.885 23.873,22.441 L16.543,14.622 C16.408,14.479 16.207,14.418 16.016,14.464 C15.824,14.509 15.672,14.654 15.615,14.844 C15.559,15.033 15.607,15.239 15.742,15.383 L23.070,23.198 C23.649,23.815 23.690,24.766 23.167,25.431 C22.644,26.096 21.715,26.274 20.986,25.848 C21.100,25.057 20.872,24.255 20.360,23.644 C19.848,23.033 19.101,22.672 18.307,22.652 C17.702,22.636 17.922,22.866 17.938,22.257 C17.960,21.510 17.686,20.785 17.176,20.242 C16.667,19.699 15.964,19.381 15.222,19.360 C14.617,19.341 14.834,19.581 14.852,18.965 C14.874,18.218 14.600,17.494 14.090,16.950 C13.581,16.407 12.878,16.089 12.136,16.068 C11.527,16.051 11.748,16.294 11.766,15.673 C11.796,14.536 11.144,13.492 10.113,13.026 C9.081,12.561 7.873,12.764 7.049,13.543 C3.117,17.280 4.473,15.992 4.180,16.271 L3.400,15.440 C0.202,12.025 0.360,6.647 3.752,3.427 C7.145,0.207 12.487,0.366 15.686,3.781 L11.181,8.063 C10.754,8.475 10.503,9.039 10.480,9.634 C10.425,11.908 13.785,13.339 15.838,11.383 L19.943,7.483 C20.049,7.382 20.191,7.328 20.337,7.332 C20.482,7.336 20.621,7.399 20.721,7.506 C21.800,8.657 28.575,15.884 29.610,16.988 C29.919,17.317 30.085,17.757 30.073,18.210 C30.059,18.663 29.868,19.093 29.540,19.404 L29.540,19.404 ZM29.635,15.401 L21.520,6.745 C21.220,6.425 20.806,6.238 20.368,6.225 C19.931,6.213 19.506,6.376 19.188,6.678 L15.082,10.579 C14.646,10.993 14.064,11.216 13.465,11.197 C12.866,11.178 12.298,10.920 11.888,10.480 C11.682,10.260 11.571,9.966 11.580,9.663 C11.590,9.360 11.718,9.074 11.937,8.867 L17.657,3.428 C20.970,0.272 26.175,0.334 29.411,3.570 C32.648,6.805 32.747,12.044 29.635,15.401 L29.635,15.401 Z"/>
</svg>