<svg
 xmlns="http://www.w3.org/2000/svg"
 xmlns:xlink="http://www.w3.org/1999/xlink"
 width="30px" height="28px">
<path fill-rule="evenodd"  fill="rgb(39, 170, 153)"
 d="M29.938,27.377 C29.938,27.720 29.656,28.000 29.308,28.000 C28.961,28.000 28.679,27.720 28.679,27.377 C28.679,20.158 22.744,14.285 15.449,14.285 C8.154,14.285 2.219,20.158 2.219,27.377 C2.219,27.720 1.937,28.000 1.589,28.000 C1.241,28.000 0.959,27.720 0.959,27.377 C0.959,20.291 6.185,14.405 13.019,13.256 C10.398,12.278 8.519,9.789 8.519,6.857 C8.519,3.075 11.628,-0.000 15.449,-0.000 C19.269,-0.000 22.378,3.075 22.378,6.857 C22.378,9.789 20.499,12.278 17.878,13.256 C24.713,14.405 29.938,20.291 29.938,27.377 ZM21.118,6.857 C21.118,3.764 18.575,1.246 15.449,1.246 C12.323,1.246 9.779,3.764 9.779,6.857 C9.779,9.950 12.323,12.467 15.449,12.467 C18.575,12.467 21.118,9.950 21.118,6.857 Z"/>
</svg>