<svg
 xmlns="http://www.w3.org/2000/svg"
 xmlns:xlink="http://www.w3.org/1999/xlink"
 width="34px" height="33px">
<path fill-rule="evenodd"  fill="rgb(39, 170, 153)"
 d="M32.721,7.702 L30.203,9.148 L28.182,12.245 C28.161,12.277 28.136,12.308 28.109,12.335 C26.679,13.764 24.776,14.551 22.752,14.551 L19.007,14.551 C19.022,14.737 19.033,14.924 19.033,15.110 C19.033,18.809 16.019,21.818 12.315,21.818 C9.006,21.818 6.254,19.413 5.705,16.263 C5.187,16.397 4.664,16.467 4.125,16.467 C3.874,16.467 3.620,16.452 3.362,16.423 L3.273,16.413 C3.217,16.407 3.167,16.385 3.118,16.364 C2.812,16.506 2.485,16.584 2.158,16.584 C1.673,16.584 1.193,16.426 0.800,16.102 C0.338,15.722 0.057,15.186 0.008,14.593 C-0.041,14.001 0.148,13.428 0.538,12.979 L7.116,5.433 C8.267,4.112 9.934,3.355 11.687,3.355 L21.009,3.355 C21.843,3.355 22.683,3.168 23.438,2.814 C23.772,2.657 25.264,1.314 26.455,0.159 C26.677,-0.056 27.031,-0.051 27.247,0.171 C27.462,0.392 27.457,0.746 27.235,0.961 C26.622,1.555 24.572,3.517 23.914,3.826 C23.011,4.249 22.007,4.473 21.009,4.473 L11.687,4.473 C10.257,4.473 8.899,5.091 7.960,6.167 L1.382,13.714 C1.192,13.932 1.100,14.213 1.124,14.502 C1.147,14.791 1.286,15.053 1.512,15.240 C1.938,15.591 2.618,15.519 3.027,15.079 L9.153,8.508 C10.248,7.333 11.800,6.659 13.409,6.659 L16.451,6.659 C17.562,6.659 18.465,7.561 18.465,8.669 C18.465,9.778 17.562,10.680 16.451,10.680 L13.190,10.680 C12.727,10.680 12.306,10.761 11.936,10.921 C11.104,11.281 10.686,11.878 10.818,12.516 C10.910,12.958 11.301,13.433 11.943,13.433 L22.752,13.433 C24.458,13.433 26.062,12.777 27.277,11.585 L29.338,8.425 C29.386,8.351 29.451,8.290 29.529,8.246 L32.163,6.733 C32.431,6.579 32.773,6.672 32.928,6.939 C33.082,7.207 32.989,7.549 32.721,7.702 ZM4.315,15.338 C4.753,15.322 5.179,15.253 5.599,15.129 C5.599,15.123 5.598,15.116 5.598,15.110 C5.598,14.671 5.643,14.242 5.724,13.826 L4.315,15.338 ZM16.016,9.511 C16.037,9.525 16.049,9.546 16.067,9.563 L16.451,9.563 C16.944,9.563 17.345,9.162 17.345,8.670 C17.345,8.177 16.944,7.777 16.451,7.777 L16.451,7.777 L13.409,7.777 C12.466,7.777 11.550,8.067 10.779,8.587 C11.273,8.470 11.786,8.403 12.315,8.403 C13.637,8.403 14.917,8.786 16.016,9.511 ZM15.622,14.552 L11.943,14.552 C10.919,14.552 10.058,13.888 9.775,12.921 C9.255,13.523 8.957,14.296 8.957,15.110 C8.957,16.960 10.463,18.464 12.315,18.464 C14.167,18.464 15.674,16.960 15.674,15.110 C15.674,14.922 15.653,14.735 15.622,14.552 ZM17.873,14.552 L16.756,14.552 C16.780,14.736 16.793,14.923 16.793,15.110 C16.793,17.576 14.784,19.582 12.315,19.582 C9.846,19.582 7.837,17.576 7.837,15.110 C7.837,13.623 8.575,12.237 9.811,11.403 C9.831,11.389 9.855,11.386 9.876,11.375 C10.123,10.813 10.619,10.273 11.491,9.895 C11.950,9.697 12.461,9.591 13.007,9.571 C12.778,9.543 12.548,9.521 12.315,9.521 C9.229,9.521 6.717,12.028 6.717,15.110 C6.717,18.193 9.229,20.700 12.315,20.700 C15.402,20.700 17.913,18.193 17.913,15.110 C17.913,14.924 17.892,14.737 17.873,14.552 ZM6.243,23.199 C6.345,23.035 6.524,22.936 6.717,22.936 L25.190,22.936 C25.383,22.936 25.562,23.035 25.664,23.199 L31.262,32.143 C31.426,32.404 31.346,32.749 31.084,32.913 C30.992,32.970 30.889,32.998 30.788,32.998 C30.602,32.998 30.419,32.905 30.313,32.735 L24.880,24.054 L7.028,24.054 L1.594,32.735 C1.431,32.997 1.086,33.076 0.823,32.913 C0.561,32.749 0.481,32.404 0.645,32.142 L6.243,23.199 ZM10.916,26.290 L20.992,26.290 C21.764,26.290 22.391,26.917 22.391,27.687 C22.391,28.458 21.764,29.085 20.992,29.085 L10.916,29.085 C10.144,29.085 9.516,28.458 9.516,27.687 C9.516,26.917 10.144,26.290 10.916,26.290 ZM10.916,27.967 L20.992,27.967 C21.146,27.967 21.271,27.842 21.271,27.687 C21.271,27.533 21.146,27.408 20.992,27.408 L10.916,27.408 C10.762,27.408 10.636,27.533 10.636,27.687 C10.636,27.842 10.762,27.967 10.916,27.967 Z"/>
</svg>