<svg
 xmlns="http://www.w3.org/2000/svg"
 xmlns:xlink="http://www.w3.org/1999/xlink"
 width="40px" height="35px">
<path fill-rule="evenodd"  fill="rgb(39, 170, 153)"
 d="M38.557,33.349 C37.966,34.383 36.908,35.000 35.727,35.000 L3.273,35.000 C2.092,35.000 1.034,34.383 0.443,33.349 C-0.148,32.315 -0.148,31.081 0.443,30.047 L16.670,1.651 C17.261,0.617 18.319,-0.000 19.500,-0.000 C20.681,-0.000 21.739,0.617 22.330,1.651 L38.557,30.047 C39.147,31.081 39.147,32.315 38.557,33.349 ZM37.567,30.625 L21.341,2.228 C20.956,1.555 20.268,1.154 19.500,1.154 C18.732,1.154 18.044,1.555 17.660,2.228 L1.433,30.625 C1.048,31.297 1.048,32.100 1.433,32.772 C1.817,33.444 2.505,33.845 3.273,33.845 L35.727,33.845 C36.495,33.845 37.183,33.444 37.567,32.772 C37.952,32.100 37.952,31.297 37.567,30.625 ZM34.052,31.299 L23.774,31.299 C23.459,31.299 23.203,31.040 23.203,30.721 C23.203,30.402 23.459,30.144 23.774,30.144 L33.063,30.144 L21.447,9.816 C21.289,9.540 21.383,9.187 21.656,9.028 C21.929,8.868 22.278,8.963 22.436,9.239 L34.547,30.433 C34.649,30.611 34.649,30.831 34.547,31.010 C34.445,31.188 34.256,31.299 34.052,31.299 ZM21.868,14.128 L21.322,24.615 C21.289,25.249 20.771,25.747 20.142,25.747 L18.858,25.747 C18.229,25.747 17.711,25.249 17.678,24.615 L17.132,14.128 C17.115,13.802 17.232,13.480 17.455,13.243 C17.677,13.007 17.989,12.871 18.312,12.871 L20.688,12.871 C21.011,12.871 21.323,13.007 21.545,13.243 C21.768,13.480 21.885,13.802 21.868,14.128 ZM20.717,14.038 C20.705,14.026 20.692,14.026 20.688,14.026 L18.312,14.026 C18.308,14.026 18.295,14.026 18.283,14.038 C18.272,14.051 18.272,14.063 18.272,14.067 L18.819,24.555 C18.820,24.576 18.837,24.592 18.858,24.592 L20.142,24.592 C20.163,24.592 20.180,24.576 20.181,24.555 L20.727,14.067 C20.728,14.063 20.728,14.051 20.717,14.038 ZM20.943,7.780 C20.669,7.939 20.320,7.845 20.162,7.569 L19.500,6.409 L5.937,30.144 L15.226,30.144 C15.542,30.144 15.797,30.402 15.797,30.721 C15.797,31.040 15.542,31.299 15.226,31.299 L4.948,31.299 C4.744,31.299 4.555,31.188 4.453,31.010 C4.351,30.831 4.351,30.611 4.453,30.433 L19.005,4.966 C19.107,4.788 19.296,4.678 19.500,4.678 C19.704,4.678 19.893,4.788 19.995,4.966 L21.152,6.991 C21.309,7.267 21.216,7.621 20.943,7.780 ZM19.500,27.060 C20.825,27.060 21.903,28.149 21.903,29.487 C21.903,30.826 20.825,31.915 19.500,31.915 C18.175,31.915 17.097,30.826 17.097,29.487 C17.097,28.149 18.175,27.060 19.500,27.060 ZM19.500,30.761 C20.195,30.761 20.760,30.190 20.760,29.487 C20.760,28.785 20.195,28.214 19.500,28.214 C18.805,28.214 18.240,28.785 18.240,29.487 C18.240,30.190 18.805,30.761 19.500,30.761 Z"/>
</svg>