<svg
 xmlns="http://www.w3.org/2000/svg"
 xmlns:xlink="http://www.w3.org/1999/xlink"
 width="37px" height="29px">
<path fill-rule="evenodd"  fill="rgb(39, 170, 153)"
 d="M33.300,14.203 L33.300,12.969 L37.000,12.969 L37.000,14.203 L33.300,14.203 ZM32.982,7.507 L36.064,5.657 L36.699,6.714 L33.616,8.565 L32.982,7.507 ZM31.645,16.022 L28.367,17.115 L28.367,24.689 C28.367,26.050 27.261,27.156 25.900,27.156 C24.539,27.156 23.433,26.050 23.433,24.689 L23.433,24.243 L10.140,18.924 L11.657,24.990 L12.276,25.609 C12.557,25.893 12.708,26.266 12.705,26.662 C12.703,27.057 12.547,27.428 12.266,27.705 C12.069,27.900 11.821,28.035 11.549,28.097 C11.543,28.098 11.537,28.099 11.531,28.101 L6.900,28.994 C6.860,29.003 6.822,29.007 6.783,29.007 C6.502,29.007 6.250,28.814 6.183,28.532 L3.793,18.374 C1.623,17.856 -0.000,15.912 -0.000,13.586 C-0.000,10.865 2.213,8.651 4.933,8.651 L9.130,8.651 L23.433,2.929 L23.433,2.483 C23.433,1.123 24.539,0.016 25.900,0.016 C27.261,0.016 28.367,1.123 28.367,2.483 L28.367,10.057 L31.645,11.150 C31.897,11.235 32.067,11.470 32.067,11.736 L32.067,15.436 C32.067,15.701 31.897,15.937 31.645,16.022 ZM8.633,9.885 L4.933,9.885 C2.893,9.885 1.233,11.545 1.233,13.586 C1.233,15.627 2.893,17.287 4.933,17.287 L8.633,17.287 L8.633,9.885 ZM8.768,18.520 L5.095,18.520 L7.248,27.672 L11.285,26.891 C11.329,26.880 11.368,26.858 11.400,26.827 C11.462,26.766 11.472,26.691 11.473,26.654 C11.473,26.615 11.464,26.541 11.402,26.479 L10.665,25.742 C10.586,25.662 10.530,25.563 10.502,25.455 L8.768,18.520 ZM23.433,4.258 L9.867,9.686 L9.867,17.487 L23.433,22.914 L23.433,4.258 ZM27.133,16.670 L27.133,10.502 L27.133,2.483 C27.133,1.803 26.581,1.250 25.900,1.250 C25.219,1.250 24.667,1.803 24.667,2.483 L24.667,3.100 L24.667,3.347 L24.667,23.825 L24.667,24.072 L24.667,24.689 C24.667,25.369 25.219,25.922 25.900,25.922 C26.581,25.922 27.133,25.368 27.133,24.689 L27.133,16.670 ZM30.833,12.179 L28.367,11.357 L28.367,15.815 L30.833,14.992 L30.833,12.179 ZM7.400,13.586 L6.167,13.586 L6.167,11.119 L7.400,11.119 L7.400,13.586 ZM3.700,11.119 L4.933,11.119 L4.933,13.586 L3.700,13.586 L3.700,11.119 ZM36.705,20.458 L36.070,21.517 L32.987,19.666 L33.621,18.607 L36.705,20.458 Z"/>
</svg>