<svg
 xmlns="http://www.w3.org/2000/svg"
 xmlns:xlink="http://www.w3.org/1999/xlink"
 width="29px" height="25px">
<path fill-rule="evenodd"  fill="rgb(39, 170, 153)"
 d="M28.220,13.231 L9.981,13.231 C9.552,13.231 9.201,12.904 9.201,12.504 C9.201,12.103 9.552,11.775 9.981,11.775 L28.220,11.775 C28.656,11.775 29.000,12.103 29.000,12.504 C29.000,12.904 28.649,13.231 28.220,13.231 ZM28.220,4.134 L9.981,4.134 C9.552,4.134 9.201,3.806 9.201,3.406 C9.201,3.005 9.552,2.678 9.981,2.678 L28.220,2.678 C28.656,2.678 29.000,3.005 29.000,3.406 C29.000,3.806 28.649,4.134 28.220,4.134 ZM3.626,25.000 C1.622,25.000 -0.000,23.486 -0.000,21.616 C-0.000,19.745 1.622,18.231 3.626,18.231 C5.630,18.231 7.252,19.752 7.252,21.616 C7.252,23.486 5.630,25.000 3.626,25.000 ZM3.626,19.694 C2.488,19.694 1.559,20.553 1.559,21.622 C1.559,22.685 2.480,23.551 3.626,23.551 C4.765,23.551 5.692,22.685 5.692,21.622 C5.692,20.559 4.772,19.694 3.626,19.694 ZM3.626,15.887 C1.622,15.887 -0.000,14.374 -0.000,12.504 C-0.000,10.633 1.622,9.119 3.626,9.119 C5.630,9.119 7.252,10.633 7.252,12.504 C7.252,14.374 5.630,15.887 3.626,15.887 ZM3.626,10.575 C2.488,10.575 1.559,11.434 1.559,12.504 C1.559,13.566 2.480,14.432 3.626,14.432 C4.765,14.432 5.692,13.566 5.692,12.504 C5.692,11.441 4.765,10.575 3.626,10.575 ZM3.626,6.768 C1.622,6.768 -0.000,5.254 -0.000,3.384 C-0.000,1.513 1.622,-0.000 3.626,-0.000 C5.630,0.007 7.252,1.521 7.252,3.384 C7.252,5.254 5.630,6.768 3.626,6.768 ZM3.626,1.463 C2.488,1.463 1.559,2.329 1.559,3.391 C1.559,4.454 2.480,5.320 3.626,5.320 C4.765,5.320 5.692,4.454 5.692,3.391 C5.692,2.329 4.772,1.463 3.626,1.463 ZM9.981,20.873 L28.220,20.873 C28.656,20.873 29.000,21.201 29.000,21.601 C29.000,22.002 28.649,22.329 28.220,22.329 L9.981,22.329 C9.552,22.329 9.201,22.002 9.201,21.601 C9.201,21.201 9.552,20.873 9.981,20.873 Z"/>
</svg>