<svg
 xmlns="http://www.w3.org/2000/svg"
 xmlns:xlink="http://www.w3.org/1999/xlink"
 width="35px" height="35px">
<path fill-rule="evenodd"  fill="rgb(39, 170, 153)"
 d="M34.417,24.968 L23.884,24.968 C23.866,25.165 23.837,25.360 23.803,25.552 L27.002,29.438 C27.061,29.508 27.102,29.591 27.123,29.682 C27.198,30.003 27.004,30.323 26.691,30.398 L23.169,31.255 L21.729,34.643 C21.693,34.726 21.638,34.803 21.567,34.861 C21.321,35.072 20.953,35.040 20.747,34.788 L17.552,30.910 C17.534,30.910 17.518,30.910 17.500,30.910 C17.482,30.910 17.466,30.910 17.448,30.910 L14.253,34.788 C14.195,34.859 14.122,34.915 14.039,34.952 C13.743,35.082 13.400,34.944 13.271,34.643 L11.831,31.255 L8.309,30.398 C8.221,30.376 8.138,30.334 8.069,30.275 C7.822,30.064 7.790,29.689 7.997,29.438 L11.197,25.552 C11.162,25.360 11.134,25.165 11.116,24.968 L0.583,24.968 C0.261,24.968 -0.000,24.701 -0.000,24.373 L-0.000,0.603 C-0.000,0.274 0.261,0.008 0.583,0.008 L34.417,0.008 C34.739,0.008 35.000,0.274 35.000,0.603 L35.000,24.373 C35.000,24.701 34.739,24.968 34.417,24.968 ZM21.033,33.287 L22.214,30.510 C22.287,30.339 22.435,30.211 22.613,30.169 L25.501,29.465 L23.407,26.922 C23.397,26.950 23.381,26.973 23.371,27.003 C23.296,27.178 23.213,27.350 23.122,27.517 C23.087,27.588 23.046,27.658 23.006,27.728 C22.928,27.862 22.842,27.996 22.752,28.125 C22.690,28.215 22.625,28.306 22.557,28.393 C22.479,28.494 22.398,28.592 22.314,28.690 C22.224,28.793 22.130,28.894 22.034,28.992 C21.961,29.066 21.885,29.138 21.809,29.209 C21.747,29.264 21.686,29.333 21.626,29.384 C21.567,29.435 21.499,29.476 21.441,29.524 C21.410,29.550 21.383,29.578 21.352,29.601 C21.294,29.644 21.236,29.682 21.178,29.723 C21.098,29.780 21.020,29.838 20.939,29.890 C20.772,30.000 20.597,30.100 20.421,30.193 C20.360,30.226 20.295,30.256 20.230,30.286 C20.072,30.363 19.913,30.432 19.750,30.495 C19.706,30.511 19.665,30.530 19.620,30.544 C19.398,30.625 19.172,30.691 18.943,30.744 L18.938,30.744 L21.033,33.287 ZM16.404,29.596 C16.670,29.653 16.942,29.689 17.214,29.704 L17.222,29.704 C17.314,29.709 17.406,29.714 17.499,29.714 C17.592,29.714 17.684,29.709 17.776,29.704 L17.784,29.704 C18.056,29.689 18.327,29.653 18.596,29.595 L18.642,29.586 C18.746,29.564 18.851,29.534 18.954,29.503 C18.995,29.492 19.036,29.480 19.077,29.467 C19.152,29.443 19.234,29.413 19.300,29.387 C19.367,29.364 19.434,29.339 19.498,29.311 C19.546,29.292 19.592,29.269 19.640,29.248 C19.732,29.208 19.818,29.164 19.906,29.118 C19.929,29.106 19.949,29.095 19.971,29.083 C20.080,29.023 20.189,28.960 20.293,28.892 L20.300,28.888 C20.419,28.812 20.527,28.734 20.648,28.642 C20.769,28.551 20.879,28.449 20.990,28.349 C21.121,28.229 21.247,28.103 21.367,27.970 C21.412,27.919 21.462,27.872 21.506,27.819 C21.669,27.623 21.818,27.416 21.950,27.201 C21.972,27.166 21.989,27.131 22.008,27.098 C22.132,26.889 22.241,26.670 22.334,26.444 C22.342,26.426 22.352,26.406 22.360,26.386 C22.463,26.126 22.546,25.858 22.609,25.585 C22.611,25.574 22.617,25.566 22.620,25.555 C22.707,25.165 22.750,24.767 22.750,24.366 C22.748,21.412 20.396,19.020 17.497,19.021 C14.598,19.022 12.248,21.419 12.250,24.373 C12.250,24.768 12.292,25.163 12.377,25.549 C12.380,25.559 12.388,25.569 12.388,25.578 C12.450,25.852 12.534,26.120 12.637,26.380 C12.644,26.399 12.654,26.418 12.662,26.439 C12.755,26.667 12.865,26.886 12.988,27.097 C13.010,27.131 13.027,27.163 13.047,27.196 C13.180,27.414 13.328,27.621 13.491,27.816 C13.536,27.869 13.586,27.918 13.633,27.969 C13.750,28.100 13.875,28.226 14.005,28.344 C14.115,28.445 14.227,28.546 14.348,28.638 C14.567,28.805 14.796,28.955 15.037,29.086 L15.084,29.112 C15.176,29.162 15.271,29.206 15.367,29.250 C15.409,29.271 15.451,29.291 15.494,29.310 C15.563,29.339 15.631,29.364 15.703,29.390 C15.774,29.416 15.846,29.443 15.919,29.466 C15.961,29.480 16.004,29.492 16.047,29.505 C16.148,29.534 16.251,29.563 16.355,29.586 L16.404,29.596 ZM9.498,29.466 L12.386,30.170 C12.564,30.214 12.712,30.340 12.785,30.511 L13.967,33.287 L16.062,30.743 L16.055,30.741 C15.827,30.687 15.602,30.620 15.381,30.541 C15.335,30.525 15.290,30.506 15.245,30.489 C15.087,30.427 14.931,30.360 14.775,30.286 C14.707,30.253 14.640,30.222 14.574,30.187 C14.400,30.098 14.229,29.998 14.064,29.890 C13.977,29.835 13.894,29.772 13.810,29.712 C13.756,29.673 13.701,29.638 13.648,29.597 C13.619,29.575 13.594,29.550 13.566,29.527 C13.503,29.478 13.441,29.438 13.375,29.383 C13.309,29.327 13.253,29.264 13.190,29.204 C13.114,29.134 13.040,29.065 12.968,28.990 C12.871,28.893 12.772,28.785 12.687,28.687 C12.603,28.590 12.522,28.491 12.444,28.390 C12.377,28.301 12.312,28.214 12.249,28.122 C12.160,27.992 12.075,27.860 11.995,27.723 C11.955,27.655 11.915,27.586 11.879,27.516 C11.787,27.348 11.705,27.178 11.629,27.001 C11.618,26.974 11.603,26.950 11.593,26.924 L9.498,29.466 ZM33.833,1.197 L1.167,1.197 L1.167,23.779 L11.112,23.779 C11.389,20.631 13.837,18.138 16.926,17.856 C20.453,17.533 23.570,20.186 23.887,23.779 L33.833,23.779 L33.833,1.197 ZM7.000,10.111 L28.000,10.111 L28.000,11.299 L7.000,11.299 L7.000,10.111 ZM10.500,6.545 L24.500,6.545 L24.500,7.734 L10.500,7.734 L10.500,6.545 ZM13.417,24.373 C13.417,22.075 15.245,20.213 17.500,20.213 C19.756,20.213 21.583,22.075 21.583,24.373 C21.583,26.670 19.756,28.533 17.500,28.533 C15.246,28.531 13.419,26.669 13.417,24.373 ZM17.500,27.345 C19.111,27.345 20.417,26.014 20.417,24.373 C20.417,22.732 19.111,21.402 17.500,21.402 C15.890,21.404 14.585,22.732 14.583,24.373 C14.583,26.014 15.889,27.345 17.500,27.345 Z"/>
</svg>