<svg
 xmlns="http://www.w3.org/2000/svg"
 xmlns:xlink="http://www.w3.org/1999/xlink"
 width="35px" height="35px">
<path fill-rule="evenodd"  fill="rgb(39, 170, 153)"
 d="M34.417,31.500 C32.806,31.502 31.502,32.806 31.500,34.416 C31.500,34.739 31.239,35.000 30.917,35.000 C30.594,35.000 30.333,34.739 30.333,34.416 C30.331,32.806 29.027,31.502 27.417,31.500 C27.094,31.500 26.833,31.238 26.833,30.916 C26.833,30.594 27.094,30.333 27.417,30.333 C29.027,30.331 30.331,29.026 30.333,27.416 C30.333,27.094 30.594,26.833 30.917,26.833 C31.239,26.833 31.500,27.094 31.500,27.416 C31.502,29.026 32.806,30.331 34.417,30.333 C34.739,30.333 35.000,30.594 35.000,30.916 C35.000,31.238 34.739,31.500 34.417,31.500 ZM30.917,29.518 C30.571,30.091 30.091,30.571 29.518,30.916 C30.091,31.262 30.571,31.742 30.917,32.315 C31.262,31.742 31.742,31.262 32.315,30.916 C31.742,30.571 31.262,30.091 30.917,29.518 ZM17.500,32.083 C9.446,32.083 2.917,25.554 2.917,17.500 C2.926,9.449 9.449,2.925 17.500,2.916 C25.554,2.916 32.083,9.446 32.083,17.500 C32.083,25.554 25.554,32.083 17.500,32.083 ZM17.500,4.083 C10.093,4.092 4.092,10.093 4.083,17.500 C4.083,24.910 10.090,30.916 17.500,30.916 C24.910,30.916 30.917,24.910 30.917,17.500 C30.917,10.090 24.910,4.083 17.500,4.083 ZM17.500,29.166 C11.060,29.159 5.841,23.940 5.833,17.500 C5.833,11.056 11.057,5.833 17.500,5.833 C23.943,5.833 29.167,11.056 29.167,17.500 C29.167,23.943 23.943,29.166 17.500,29.166 ZM23.587,26.039 L17.500,24.518 L11.413,26.039 C15.050,28.653 19.950,28.653 23.587,26.039 ZM7.000,17.500 C6.999,20.306 8.125,22.995 10.126,24.963 L12.151,19.101 L7.308,15.021 C7.106,15.832 7.003,16.664 7.000,17.500 ZM7.876,13.314 L14.213,12.603 L16.596,7.046 C12.761,7.382 9.416,9.786 7.876,13.314 ZM15.152,13.374 C15.069,13.567 14.889,13.701 14.681,13.724 L8.414,14.428 L13.209,18.467 C13.394,18.622 13.463,18.875 13.385,19.103 L11.403,24.839 L17.358,23.350 C17.451,23.327 17.549,23.327 17.641,23.350 L23.597,24.839 L21.615,19.103 C21.537,18.875 21.606,18.622 21.791,18.467 L26.586,14.428 L20.319,13.724 C20.110,13.701 19.931,13.567 19.848,13.374 L17.500,7.897 L15.152,13.374 ZM18.404,7.046 L20.787,12.603 L27.124,13.314 C25.584,9.786 22.239,7.382 18.404,7.046 ZM27.692,15.021 L22.849,19.101 L24.874,24.963 C27.511,22.384 28.583,18.601 27.692,15.021 ZM7.583,4.666 C5.973,4.668 4.669,5.973 4.667,7.583 C4.667,7.905 4.405,8.166 4.083,8.166 C3.761,8.166 3.500,7.905 3.500,7.583 C3.498,5.973 2.193,4.668 0.583,4.666 C0.261,4.666 -0.000,4.405 -0.000,4.083 C-0.000,3.761 0.261,3.500 0.583,3.500 C2.193,3.498 3.498,2.193 3.500,0.583 C3.500,0.261 3.761,-0.000 4.083,-0.000 C4.405,-0.000 4.667,0.261 4.667,0.583 C4.669,2.193 5.973,3.498 7.583,3.500 C7.905,3.500 8.167,3.761 8.167,4.083 C8.167,4.405 7.905,4.666 7.583,4.666 ZM4.083,2.685 C3.738,3.257 3.258,3.738 2.685,4.083 C3.258,4.429 3.738,4.909 4.083,5.482 C4.429,4.909 4.909,4.429 5.482,4.083 C4.909,3.738 4.429,3.257 4.083,2.685 Z"/>
</svg>