<svg
 xmlns="http://www.w3.org/2000/svg"
 xmlns:xlink="http://www.w3.org/1999/xlink"
 width="35px" height="35px">
<path fill-rule="evenodd"  fill="rgb(39, 170, 153)"
 d="M34.399,12.248 L33.816,12.248 C33.494,12.248 33.234,11.987 33.234,11.665 C33.234,11.344 33.494,11.083 33.816,11.083 L34.399,11.083 C34.722,11.083 34.982,11.344 34.982,11.665 C34.982,11.987 34.722,12.248 34.399,12.248 ZM33.546,10.430 C33.437,10.539 33.289,10.600 33.134,10.600 C32.979,10.600 32.831,10.539 32.722,10.430 C32.494,10.202 32.494,9.833 32.722,9.606 L33.134,9.194 C33.360,8.976 33.717,8.976 33.944,9.194 C34.175,9.418 34.182,9.786 33.959,10.017 L33.546,10.430 ZM33.816,22.737 C33.816,23.702 33.034,24.486 32.068,24.486 C31.103,24.486 30.319,23.702 30.319,22.737 C30.319,21.772 31.103,20.989 32.068,20.989 C33.034,20.989 33.816,21.772 33.816,22.737 ZM32.068,22.154 C31.746,22.154 31.485,22.416 31.485,22.737 C31.485,23.059 31.746,23.320 32.068,23.320 C32.389,23.320 32.651,23.059 32.651,22.737 C32.651,22.416 32.389,22.154 32.068,22.154 ZM31.485,15.162 C31.164,15.162 30.902,14.901 30.902,14.579 L30.902,13.996 C30.902,13.674 31.164,13.413 31.485,13.413 C31.806,13.413 32.068,13.674 32.068,13.996 L32.068,14.579 C32.068,14.901 31.806,15.162 31.485,15.162 ZM31.485,9.917 C31.164,9.917 30.902,9.656 30.902,9.335 L30.902,8.752 C30.902,8.430 31.164,8.169 31.485,8.169 C31.806,8.169 32.068,8.430 32.068,8.752 L32.068,9.335 C32.068,9.656 31.806,9.917 31.485,9.917 ZM30.902,2.925 L30.319,2.925 C29.998,2.925 29.736,2.664 29.736,2.342 C29.736,2.020 29.998,1.759 30.319,1.759 L30.902,1.759 C31.224,1.759 31.485,2.020 31.485,2.342 C31.485,2.664 31.224,2.925 30.902,2.925 ZM29.154,1.759 C28.832,1.759 28.571,1.498 28.571,1.176 L28.571,0.594 C28.571,0.272 28.832,0.011 29.154,0.011 C29.476,0.011 29.736,0.272 29.736,0.594 L29.736,1.176 C29.736,1.498 29.476,1.759 29.154,1.759 ZM27.988,2.925 L27.406,2.925 C27.083,2.925 26.823,2.664 26.823,2.342 C26.823,2.020 27.083,1.759 27.406,1.759 L27.988,1.759 C28.310,1.759 28.571,2.020 28.571,2.342 C28.571,2.664 28.310,2.925 27.988,2.925 ZM25.074,10.500 L22.147,10.500 C21.826,10.500 21.564,10.239 21.564,9.917 L21.564,6.992 C21.564,6.669 21.826,6.408 22.147,6.408 L25.074,6.408 C25.396,6.408 25.657,6.669 25.657,6.992 L25.657,9.917 C25.657,10.239 25.396,10.500 25.074,10.500 ZM24.491,7.574 L22.730,7.574 L22.730,9.335 L24.491,9.335 L24.491,7.574 ZM14.973,17.343 C14.734,17.558 14.365,17.539 14.150,17.300 C13.935,17.061 13.954,16.692 14.193,16.477 L20.022,11.233 C20.258,11.028 20.614,11.047 20.829,11.275 C21.048,11.509 21.036,11.879 20.801,12.099 L14.973,17.343 ZM18.080,8.169 C17.114,8.169 16.332,7.387 16.332,6.421 C16.332,5.456 17.114,4.673 18.080,4.673 C19.045,4.673 19.829,5.456 19.829,6.421 C19.829,7.387 19.045,8.169 18.080,8.169 ZM18.080,5.838 C17.758,5.838 17.498,6.099 17.498,6.421 C17.498,6.743 17.758,7.004 18.080,7.004 C18.402,7.004 18.663,6.743 18.663,6.421 C18.663,6.099 18.402,5.838 18.080,5.838 ZM12.385,16.552 C12.295,16.768 12.083,16.910 11.848,16.910 C11.771,16.910 11.694,16.895 11.624,16.865 C11.328,16.741 11.188,16.401 11.311,16.105 L12.158,14.072 C13.462,10.957 13.766,7.514 13.028,4.219 C13.027,4.212 13.025,4.205 13.023,4.198 C12.960,3.883 13.164,3.575 13.479,3.511 C13.794,3.447 14.102,3.651 14.166,3.966 C14.956,7.496 14.630,11.184 13.233,14.521 L12.385,16.552 ZM12.835,2.342 C12.191,2.342 11.669,1.820 11.669,1.176 C11.669,0.533 12.191,0.011 12.835,0.011 C13.478,0.011 14.001,0.533 14.001,1.176 C14.001,1.820 13.478,2.342 12.835,2.342 ZM8.698,9.477 C8.235,9.378 7.752,9.491 7.380,9.784 C6.215,10.949 8.099,15.428 12.664,19.993 C14.540,21.938 16.718,23.562 19.116,24.807 C20.906,25.663 22.311,25.839 22.875,25.276 C23.341,24.810 23.302,23.750 22.770,22.363 C22.767,22.355 22.765,22.347 22.762,22.341 C22.653,22.038 22.810,21.704 23.113,21.595 C23.416,21.487 23.748,21.643 23.858,21.946 C24.773,24.333 24.277,25.524 23.699,26.101 C23.361,26.430 22.928,26.647 22.461,26.719 C22.432,26.742 22.400,26.763 22.366,26.779 L0.801,34.938 C0.690,34.979 0.570,34.986 0.455,34.958 C0.143,34.881 -0.049,34.567 0.028,34.253 L1.165,29.591 C1.241,29.279 1.557,29.088 1.870,29.163 C2.182,29.240 2.374,29.554 2.298,29.868 L1.424,33.455 L6.286,31.615 C4.511,30.038 3.407,27.841 3.202,25.476 L2.927,22.203 C2.927,22.202 2.927,22.199 2.927,22.199 C2.901,21.879 3.141,21.597 3.461,21.571 C3.467,21.571 3.473,21.571 3.479,21.571 C3.797,21.548 4.071,21.789 4.093,22.106 L4.363,25.381 C4.551,27.594 5.638,29.632 7.371,31.023 C7.416,31.062 7.455,31.110 7.487,31.162 L14.302,28.582 C9.534,26.365 5.999,22.143 4.657,17.058 C4.507,16.488 4.385,15.905 4.293,15.323 C4.243,15.005 4.460,14.707 4.779,14.657 C5.096,14.606 5.395,14.824 5.445,15.142 C6.367,20.984 10.348,25.886 15.877,27.988 L20.018,26.418 C19.537,26.262 19.068,26.073 18.613,25.855 C16.096,24.554 13.809,22.852 11.840,20.815 C7.685,16.661 4.421,11.093 6.556,8.958 C7.170,8.410 8.001,8.174 8.812,8.317 C9.120,8.354 9.345,8.628 9.322,8.939 C9.299,9.259 9.019,9.501 8.698,9.477 ZM5.593,4.334 L5.885,6.037 C5.907,6.164 5.886,6.294 5.826,6.407 C5.677,6.692 5.324,6.801 5.039,6.652 L3.510,5.847 L1.980,6.654 C1.865,6.714 1.734,6.736 1.606,6.713 C1.289,6.657 1.078,6.355 1.133,6.037 L1.425,4.334 L0.187,3.128 C0.096,3.039 0.036,2.921 0.018,2.794 C-0.028,2.476 0.193,2.181 0.512,2.134 L2.222,1.886 L2.989,0.336 C3.041,0.247 3.115,0.173 3.203,0.122 C3.492,-0.049 3.864,0.047 4.034,0.336 L4.797,1.886 L6.507,2.134 C6.727,2.166 6.909,2.320 6.978,2.530 C7.047,2.741 6.990,2.973 6.832,3.128 L5.593,4.334 ZM4.325,2.995 C4.136,2.967 3.972,2.848 3.887,2.676 L3.510,1.911 L3.133,2.676 C3.048,2.848 2.883,2.967 2.694,2.995 L1.848,3.118 L2.461,3.714 C2.596,3.848 2.658,4.040 2.625,4.228 L2.481,5.070 L3.239,4.673 C3.408,4.583 3.611,4.583 3.781,4.673 L4.536,5.071 L4.391,4.229 C4.359,4.040 4.421,3.847 4.559,3.714 L5.171,3.118 L4.325,2.995 ZM29.154,21.571 C29.085,21.572 29.015,21.561 28.949,21.537 C25.991,20.429 22.792,20.118 19.676,20.636 L17.593,20.984 C17.286,21.027 16.998,20.822 16.939,20.517 C16.878,20.200 17.085,19.895 17.401,19.834 L19.484,19.485 C22.803,18.933 26.208,19.264 29.358,20.443 C29.587,20.528 29.738,20.747 29.738,20.990 C29.737,21.311 29.476,21.572 29.154,21.571 ZM31.430,11.415 C31.570,11.705 31.445,12.053 31.155,12.192 L18.915,18.019 C18.624,18.158 18.277,18.034 18.139,17.743 C18.000,17.452 18.123,17.105 18.414,16.967 L30.654,11.139 C30.944,11.001 31.292,11.124 31.430,11.415 ZM28.571,4.090 L28.571,3.508 C28.571,3.185 28.832,2.925 29.154,2.925 C29.476,2.925 29.736,3.185 29.736,3.508 L29.736,4.090 C29.736,4.412 29.476,4.673 29.154,4.673 C28.832,4.673 28.571,4.412 28.571,4.090 ZM30.248,9.606 C30.467,9.831 30.467,10.189 30.248,10.415 C30.025,10.647 29.656,10.653 29.424,10.430 L29.012,10.017 C28.794,9.791 28.794,9.434 29.012,9.208 C29.236,8.976 29.605,8.970 29.836,9.194 L30.248,9.606 ZM33.134,14.137 L32.722,13.725 C32.503,13.500 32.503,13.142 32.722,12.916 C32.945,12.685 33.314,12.678 33.546,12.902 L33.959,13.314 C34.176,13.539 34.176,13.897 33.959,14.123 C33.734,14.355 33.365,14.361 33.134,14.137 ZM26.919,25.076 C29.308,25.478 31.424,26.847 32.771,28.860 L33.011,29.220 L33.013,29.220 C34.877,30.361 35.505,32.770 34.437,34.676 C34.432,34.685 34.428,34.694 34.422,34.702 C34.258,34.979 33.901,35.070 33.624,34.906 C33.346,34.742 33.255,34.384 33.419,34.108 C33.961,33.158 33.912,31.982 33.291,31.082 C33.282,31.603 33.153,32.114 32.913,32.578 C32.286,33.701 30.866,34.104 29.742,33.476 C28.618,32.849 28.215,31.429 28.843,30.305 C29.353,29.461 30.203,28.878 31.173,28.704 C30.018,27.393 28.449,26.517 26.726,26.225 C26.421,26.166 26.215,25.879 26.259,25.571 C26.305,25.252 26.600,25.030 26.919,25.076 ZM29.861,30.873 C29.859,30.876 29.858,30.880 29.857,30.882 C29.545,31.446 29.750,32.155 30.313,32.466 C30.877,32.777 31.585,32.572 31.897,32.009 C32.249,31.379 32.223,30.188 31.731,29.914 C31.641,29.867 31.541,29.844 31.440,29.846 C30.786,29.933 30.205,30.311 29.861,30.873 Z"/>
</svg>