<svg
 xmlns="http://www.w3.org/2000/svg"
 xmlns:xlink="http://www.w3.org/1999/xlink"
 width="24px" height="26px">
<path fill-rule="evenodd"  fill="rgb(39, 170, 153)"
 d="M5.839,12.401 C9.187,12.401 11.490,9.918 11.490,6.570 C11.490,3.187 9.187,0.631 5.839,0.631 C2.528,0.631 0.224,3.187 0.224,6.570 C0.224,9.918 2.528,12.401 5.839,12.401 ZM5.227,25.000 L20.597,0.991 L18.941,0.991 L3.607,25.000 L5.227,25.000 ZM18.078,25.432 C21.389,25.432 23.729,22.912 23.729,19.565 C23.729,16.181 21.389,13.625 18.078,13.625 C14.766,13.625 12.426,16.181 12.426,19.565 C12.426,22.912 14.766,25.432 18.078,25.432 ZM5.839,11.034 C3.499,11.034 1.880,8.982 1.880,6.570 C1.880,4.050 3.499,2.035 5.839,2.035 C8.215,2.035 9.835,4.050 9.835,6.570 C9.835,8.982 8.215,11.034 5.839,11.034 ZM18.078,24.028 C15.702,24.028 14.082,22.012 14.082,19.565 C14.082,17.081 15.702,15.029 18.078,15.029 C20.453,15.029 22.037,17.081 22.037,19.565 C22.037,22.012 20.453,24.028 18.078,24.028 Z"/>
</svg>