<svg
 xmlns="http://www.w3.org/2000/svg"
 xmlns:xlink="http://www.w3.org/1999/xlink"
 width="30px" height="30px">
<path fill-rule="evenodd"  fill="rgb(194, 34, 33)"
 d="M15.000,30.000 C6.729,30.000 -0.000,23.271 -0.000,15.000 C-0.000,6.728 6.729,-0.000 15.000,-0.000 C23.271,-0.000 30.000,6.728 30.000,15.000 C30.000,23.271 23.271,30.000 15.000,30.000 ZM15.000,1.154 C7.366,1.154 1.154,7.366 1.154,15.000 C1.154,22.635 7.366,28.846 15.000,28.846 C22.635,28.846 28.846,22.635 28.846,15.000 C28.846,7.366 22.635,1.154 15.000,1.154 ZM21.925,22.860 C21.685,23.072 21.322,23.051 21.109,22.812 L15.180,16.195 L9.250,22.812 C9.037,23.051 8.674,23.072 8.434,22.860 C8.196,22.649 8.176,22.284 8.387,22.047 L14.405,15.330 L8.387,8.613 C8.176,8.376 8.196,8.011 8.434,7.800 C8.674,7.588 9.037,7.609 9.250,7.848 L15.180,14.466 L21.109,7.848 C21.322,7.609 21.685,7.587 21.925,7.800 C22.163,8.011 22.184,8.376 21.973,8.614 L15.954,15.330 L21.973,22.047 C22.184,22.284 22.163,22.649 21.925,22.860 Z"/>
</svg>