<svg xmlns="http://www.w3.org/2000/svg" width="30" height="30" viewBox="0 0 30 30"><circle cx="15" cy="15" r="15" fill="#ffd93b"/><path d="M30,15A15,15,0,0,1,3.32,24.42a15,15,0,0,0,21.1-21.1A15,15,0,0,1,30,15Z" fill="#f4c534"/><path d="M20.52,10.86a2.36,2.36,0,1,1-2.36,2.36A2.36,2.36,0,0,1,20.52,10.86Z" fill="#3e4347"/><path d="M21,12.6c-.36-.16-.57-.48-.46-.71s.47-.3.83-.14.57.48.47.71S21.36,12.76,21,12.6Z" fill="#5a5f63"/><path d="M9.48,10.86a2.36,2.36,0,1,1-2.35,2.36A2.36,2.36,0,0,1,9.48,10.86Z" fill="#3e4347"/><path d="M10,12.6c-.36-.16-.57-.48-.46-.71s.48-.3.84-.14.56.48.46.71S10.32,12.76,10,12.6Z" fill="#5a5f63"/><path d="M8.86,20.92a.69.69,0,0,1,0-1,.7.7,0,0,1,1,0,7.58,7.58,0,0,0,10.36,0,.7.7,0,0,1,1,0,.69.69,0,0,1,0,1A9,9,0,0,1,8.86,20.92Z" fill="#3e4347"/></svg>