<svg
 xmlns="http://www.w3.org/2000/svg"
 xmlns:xlink="http://www.w3.org/1999/xlink"
 width="30px" height="30px">
<path fill-rule="evenodd"  fill="rgb(39, 170, 153)"
 d="M15.000,30.000 C6.729,30.000 -0.000,23.271 -0.000,15.000 C-0.000,6.729 6.729,-0.000 15.000,-0.000 C23.271,-0.000 30.000,6.729 30.000,15.000 C30.000,23.271 23.271,30.000 15.000,30.000 ZM15.000,1.250 C7.418,1.250 1.250,7.418 1.250,15.000 C1.250,22.582 7.418,28.750 15.000,28.750 C22.582,28.750 28.750,22.582 28.750,15.000 C28.750,7.418 22.582,1.250 15.000,1.250 ZM15.000,25.000 C10.922,25.000 7.420,22.232 6.484,18.269 C6.404,17.933 6.612,17.596 6.949,17.517 C7.282,17.440 7.621,17.644 7.701,17.981 C8.503,21.377 11.504,23.750 15.000,23.750 C18.491,23.750 21.492,21.381 22.297,17.989 C22.377,17.654 22.711,17.445 23.050,17.526 C23.386,17.605 23.594,17.942 23.514,18.279 C22.574,22.236 19.072,25.000 15.000,25.000 ZM20.000,12.500 C19.310,12.500 18.750,11.940 18.750,11.250 C18.750,10.559 19.310,10.000 20.000,10.000 C20.690,10.000 21.250,10.559 21.250,11.250 C21.250,11.940 20.690,12.500 20.000,12.500 ZM10.000,12.500 C9.309,12.500 8.750,11.940 8.750,11.250 C8.750,10.559 9.309,10.000 10.000,10.000 C10.690,10.000 11.250,10.559 11.250,11.250 C11.250,11.940 10.690,12.500 10.000,12.500 Z"/>
</svg>