<svg
 xmlns="http://www.w3.org/2000/svg"
 xmlns:xlink="http://www.w3.org/1999/xlink"
 width="30px" height="30px">
<path fill-rule="evenodd" fill="rgb(39, 170, 153)"
 d="M15.000,30.000 C6.729,30.000 -0.000,23.271 -0.000,15.000 C-0.000,6.728 6.729,-0.000 15.000,-0.000 C23.271,-0.000 30.000,6.728 30.000,15.000 C30.000,23.271 23.271,30.000 15.000,30.000 ZM15.000,1.154 C7.366,1.154 1.154,7.366 1.154,15.000 C1.154,22.635 7.366,28.846 15.000,28.846 C22.635,28.846 28.846,22.635 28.846,15.000 C28.846,7.366 22.635,1.154 15.000,1.154 ZM13.701,19.998 C13.587,20.127 13.429,20.192 13.269,20.192 C13.142,20.192 13.014,20.150 12.909,20.066 L7.140,15.451 C6.891,15.251 6.850,14.889 7.049,14.639 C7.248,14.391 7.612,14.350 7.860,14.549 L13.202,18.822 L22.068,8.848 C22.281,8.609 22.644,8.587 22.884,8.800 C23.122,9.011 23.142,9.376 22.931,9.614 L13.701,19.998 Z"/>
</svg>