<svg
 xmlns="http://www.w3.org/2000/svg"
 xmlns:xlink="http://www.w3.org/1999/xlink"
 width="30px" height="30px">
<path fill-rule="evenodd"  fill="rgb(194, 34, 33)"
 d="M15.000,30.000 C6.729,30.000 -0.000,23.271 -0.000,15.000 C-0.000,6.729 6.729,-0.000 15.000,-0.000 C23.271,-0.000 30.000,6.729 30.000,15.000 C30.000,23.271 23.271,30.000 15.000,30.000 ZM15.000,1.250 C7.418,1.250 1.250,7.418 1.250,15.000 C1.250,22.582 7.418,28.750 15.000,28.750 C22.582,28.750 28.750,22.582 28.750,15.000 C28.750,7.418 22.582,1.250 15.000,1.250 ZM21.875,22.500 C21.685,22.500 21.498,22.414 21.375,22.250 C21.307,22.162 19.584,20.000 15.000,20.000 L14.998,20.000 C10.415,20.000 8.693,22.161 8.622,22.254 C8.413,22.525 8.021,22.578 7.748,22.371 C7.475,22.162 7.419,21.775 7.625,21.500 C7.709,21.388 9.747,18.750 14.998,18.750 L15.000,18.750 C20.252,18.750 22.291,21.388 22.375,21.500 C22.582,21.776 22.526,22.168 22.250,22.375 C22.138,22.459 22.006,22.500 21.875,22.500 ZM20.000,12.500 C19.310,12.500 18.750,11.940 18.750,11.250 C18.750,10.560 19.310,10.000 20.000,10.000 C20.690,10.000 21.250,10.560 21.250,11.250 C21.250,11.940 20.690,12.500 20.000,12.500 ZM10.000,12.500 C9.309,12.500 8.750,11.940 8.750,11.250 C8.750,10.560 9.309,10.000 10.000,10.000 C10.690,10.000 11.250,10.560 11.250,11.250 C11.250,11.940 10.690,12.500 10.000,12.500 Z"/>
</svg>