<svg
 xmlns="http://www.w3.org/2000/svg"
 xmlns:xlink="http://www.w3.org/1999/xlink"
 width="30px" height="30px">
<path fill-rule="evenodd"  fill="rgb(255, 255, 255)"
 d="M28.828,11.003 C28.181,11.003 27.656,10.478 27.656,9.831 L27.656,4.001 L18.262,13.395 C17.805,13.852 17.062,13.852 16.605,13.395 C16.147,12.937 16.147,12.195 16.605,11.738 L25.999,2.344 L20.168,2.344 C19.521,2.344 18.996,1.819 18.996,1.172 C18.996,0.524 19.521,-0.000 20.168,-0.000 L28.828,-0.000 C29.481,-0.000 30.000,0.534 30.000,1.172 L30.000,9.831 C30.000,10.478 29.476,11.003 28.828,11.003 ZM4.001,27.656 L9.831,27.656 C10.478,27.656 11.003,28.181 11.003,28.828 C11.003,29.475 10.478,30.000 9.831,30.000 L1.172,30.000 C0.519,30.000 -0.000,29.465 -0.000,28.828 L-0.000,20.169 C-0.000,19.521 0.524,18.997 1.172,18.997 C1.819,18.997 2.344,19.521 2.344,20.169 L2.344,25.999 L11.738,16.605 C12.195,16.147 12.937,16.147 13.395,16.605 C13.852,17.062 13.852,17.805 13.395,18.262 L4.001,27.656 Z"/>
</svg>