<?xml version="1.0" encoding="utf-8"?><svg viewBox="0 0 512 512" xmlns="http://www.w3.org/2000/svg" xmlns:xlink="http://www.w3.org/1999/xlink"><style>:root>svg{display:none}:root>svg:target{display:block}</style><svg viewBox="0 0 9 25" id="ic_analysis" xmlns="http://www.w3.org/2000/svg"><path fill-rule="evenodd" d="M8.528 2.164H7.68V.482a.478.478 0 0 0-.472-.483H1.523a.477.477 0 0 0-.471.483v1.682H.471A.478.478 0 0 0 0 2.648v2.358c0 .268.211.484.471.484H1v15.919c0 1.979 1.57 3.59 3.5 3.59 1.929 0 3.499-1.611 3.499-3.59V5.49h.529A.477.477 0 0 0 9 5.006V2.648a.478.478 0 0 0-.472-.484zm-6.251-.956h4.177v.811H2.277v-.811zM4.5 23.741c-1.41 0-2.274-1.088-2.274-2.332v-9.462h4.548v9.462c0 1.035-.864 2.332-2.274 2.332zm2.274-13.052H2.226V5.731h4.548v4.958zm1-6.311H1.225V3.276h6.549v1.102z"/></svg><svg viewBox="0 0 14 13" id="ic_arrow" xmlns="http://www.w3.org/2000/svg"><path fill-rule="evenodd" d="M13.994 6.953v-.799h-.318L7.962-.007l-.741.798 4.974 5.363H.003v1.141h12.086l-4.445 4.792.741.913 5.291-5.705h.318v-.342z"/></svg><svg viewBox="0 0 17 17" id="ic_delete" xmlns="http://www.w3.org/2000/svg"><path d="M11.272 8.488l5.128 5.128a1.977 1.977 0 1 1-2.797 2.797l-5.128-5.128-5.128 5.128A1.977 1.977 0 1 1 .55 13.616l5.128-5.128L.55 3.36A1.977 1.977 0 1 1 3.347.563l5.128 5.128L13.603.563A1.977 1.977 0 1 1 16.4 3.36l-5.128 5.128z"/></svg><svg viewBox="0 0 15 16.78" id="ic_doctor" xmlns="http://www.w3.org/2000/svg"><path d="M12.8 11.47a7.49 7.49 0 0 0-2.85-1.78 4.33 4.33 0 0 0 1.63-2.12c.17-.46.12-5 .12-5.71A2 2 0 0 0 9.81 0H5.19a2 2 0 0 0-1.84 1.87c0 .91-.09 5.28.08 5.75a4.41 4.41 0 0 0 1.62 2.07A7.49 7.49 0 0 0 0 16.78h1.17a6.33 6.33 0 0 1 12.66 0H15a7.45 7.45 0 0 0-2.2-5.31zM4.5 1.94c0-.69.71-.9 1.34-.9H9.1c.61 0 1.32.29 1.32.87v1.72H4.5V1.94zm3 7.34a3.15 3.15 0 0 1-2.75-1.61 21.15 21.15 0 0 1-.25-3.14h6a25.23 25.23 0 0 1-.12 2.93A3.18 3.18 0 0 1 7.5 9.28z"/></svg><svg viewBox="0 0 479.058 479.058" id="ic_email" xmlns="http://www.w3.org/2000/svg"><path d="M434.146 59.882H44.912C20.146 59.882 0 80.028 0 104.794v269.47c0 24.766 20.146 44.912 44.912 44.912h389.234c24.766 0 44.912-20.146 44.912-44.912v-269.47c0-24.766-20.146-44.912-44.912-44.912zm0 29.941c2.034 0 3.969.422 5.738 1.159L239.529 264.631 39.173 90.982a14.902 14.902 0 0 1 5.738-1.159zm0 299.411H44.912c-8.26 0-14.971-6.71-14.971-14.971V122.615l199.778 173.141c2.822 2.441 6.316 3.655 9.81 3.655s6.988-1.213 9.81-3.655l199.778-173.141v251.649c-.001 8.26-6.711 14.97-14.971 14.97z"/></svg><svg viewBox="0 0 19 19" id="ic_error" xmlns="http://www.w3.org/2000/svg"><path d="M9.501 19.003C4.264 19.003.003 14.74.003 9.5S4.264-.003 9.501-.003C14.739-.003 19 4.26 19 9.5s-4.261 9.503-9.499 9.503zm0-17.819c-4.583 0-8.311 3.73-8.311 8.316 0 4.585 3.728 8.315 8.311 8.315s8.311-3.73 8.311-8.315c0-4.586-3.728-8.316-8.311-8.316zm-.593 12.474h1.187v1.188H8.908v-1.188zm0-9.504h1.187v8.316H8.908V4.154z"/></svg><svg viewBox="0 0 21 21" id="ic_faq" xmlns="http://www.w3.org/2000/svg"><path d="M10.5 0C4.701 0 0 4.113 0 9.187c0 2.9 1.539 5.482 3.937 7.165v4.647l4.6-2.791c.637.106 1.292.167 1.963.167 5.799 0 10.5-4.114 10.5-9.188C21 4.113 16.299 0 10.5 0zm0 17.062c-.767 0-1.507-.089-2.218-.241l-3.09 1.857.041-3.043c-2.368-1.425-3.921-3.78-3.921-6.448 0-4.349 4.114-7.875 9.188-7.875 5.074 0 9.187 3.526 9.187 7.875s-4.113 7.875-9.187 7.875z"/></svg><svg viewBox="0 0 9 20" id="ic_info" xmlns="http://www.w3.org/2000/svg"><path d="M8.453 17.842l-.275 1.142c-.827.331-1.488.582-1.979.756-.493.174-1.065.26-1.717.26-1.001 0-1.78-.249-2.335-.742-.555-.496-.833-1.125-.833-1.887 0-.295.02-.598.062-.908.042-.309.11-.658.201-1.048l1.034-3.708c.092-.355.17-.691.232-1.009.064-.317.094-.608.094-.869 0-.474-.096-.805-.289-.991-.192-.186-.56-.28-1.105-.28a2.86 2.86 0 0 0-.822.127c-.281.084-.521.166-.723.241l.276-1.143a25.735 25.735 0 0 1 1.944-.717 5.71 5.71 0 0 1 1.757-.299c.994 0 1.761.243 2.3.731.538.487.808 1.119.808 1.898 0 .161-.018.445-.056.851a5.729 5.729 0 0 1-.207 1.118l-1.029 3.694a9.7 9.7 0 0 0-.226 1.017 5.3 5.3 0 0 0-.1.863c0 .491.107.825.323 1.004.218.177.594.266 1.127.266.249 0 .534-.045.85-.134a4.75 4.75 0 0 0 .688-.233zm.261-15.506c0 .643-.239 1.193-.719 1.644a2.433 2.433 0 0 1-1.734.681 2.457 2.457 0 0 1-1.742-.681c-.484-.451-.727-1.001-.727-1.644s.243-1.193.727-1.651A2.448 2.448 0 0 1 6.261 0c.676 0 1.254.229 1.734.685.48.458.719 1.009.719 1.651z"/></svg><svg viewBox="0 0 17 17" id="ic_lk_menu_bonuses" xmlns="http://www.w3.org/2000/svg"><path d="M8.5 17A8.5 8.5 0 1 0 0 8.5 8.51 8.51 0 0 0 8.5 17zM.85 8.5a7.583 7.583 0 0 1 .224-1.806l3.529 2.972-1.476 4.272A7.625 7.625 0 0 1 .85 8.5zm9.361-3.006c.06.141.191.238.343.255l4.566.513-3.494 2.942a.427.427 0 0 0-.128.464l1.444 4.179-4.339-1.084a.422.422 0 0 0-.206 0l-4.339 1.084 1.444-4.179a.427.427 0 0 0-.128-.464L1.88 6.262l4.566-.513a.423.423 0 0 0 .343-.255L8.5 1.504l1.711 3.99zm-6.146 9.228L8.5 13.613l4.434 1.109a7.6 7.6 0 0 1-8.869 0zm9.808-.784l-1.476-4.272 3.529-2.972a7.578 7.578 0 0 1-2.053 7.244zm1.639-8.487l-4.617-.519L9.159.883a7.662 7.662 0 0 1 6.353 4.568zM7.841.883L6.105 4.932l-4.617.519A7.662 7.662 0 0 1 7.841.883z"/></svg><svg viewBox="0 0 18 17" id="ic_lk_menu_logout" xmlns="http://www.w3.org/2000/svg"><path d="M17.413 9.08h-9.93l2.128 2.101a.575.575 0 0 1 0 .82.59.59 0 0 1-.83-.001L5.652 8.911a.58.58 0 0 1-.129-.191.584.584 0 0 1-.034-.165c-.002-.019-.011-.036-.011-.055 0-.013.007-.023.007-.036a.599.599 0 0 1 .038-.186.591.591 0 0 1 .123-.182l.004-.006 3.131-3.091a.59.59 0 0 1 .83 0 .575.575 0 0 1 0 .82L7.482 7.92h9.931c.324 0 .587.26.587.58 0 .32-.263.58-.587.58zM16.29 6.142a.59.59 0 0 1-.761-.327c-1.128-2.828-3.845-4.656-6.92-4.656-4.1 0-7.435 3.294-7.435 7.341 0 4.047 3.335 7.341 7.435 7.341 3.075 0 5.792-1.828 6.92-4.655a.59.59 0 0 1 .761-.328c.301.118.45.455.331.752C15.315 14.884 12.17 17 8.609 17 3.862 17 0 13.186 0 8.5 0 3.813 3.862 0 8.609 0c3.561 0 6.706 2.116 8.012 5.391a.577.577 0 0 1-.331.751z"/></svg><svg viewBox="0 0 17 13" id="ic_lk_menu_newsletters" xmlns="http://www.w3.org/2000/svg"><path d="M15.406 0H1.594C.715 0 0 .729 0 1.625v9.75C0 12.271.715 13 1.594 13h13.812c.879 0 1.594-.729 1.594-1.625v-9.75C17 .729 16.285 0 15.406 0zm0 1.083c.072 0 .141.016.204.042L8.5 7.408 1.39 1.125a.535.535 0 0 1 .204-.042h13.812zm0 10.834H1.594a.538.538 0 0 1-.532-.542V2.27l7.09 6.264a.522.522 0 0 0 .696 0l7.089-6.264v9.105a.537.537 0 0 1-.531.542z"/></svg><svg viewBox="0 0 18 22" id="ic_lk_menu_orders" xmlns="http://www.w3.org/2000/svg"><path d="M15.607 21.731a4.528 4.528 0 0 1-1.794.256 4.725 4.725 0 0 1-1.748-.437c-1.149-.548-2.008-1.572-2.04-2.996-.003-.637.19-1.26.551-1.779a5.307 5.307 0 0 1 1.555-1.472l.085-.055c.247-.135.474-.302.676-.499.066-.088-.036-.245-.462-.594a.465.465 0 0 1-.184-.397.455.455 0 0 1 .473-.436l.195.025c1.784.233 3.092.978 3.945 1.937a4.357 4.357 0 0 1 1.13 3.307v.084c-.135 1.411-1.068 2.608-2.382 3.056zm1.496-3.236a3.432 3.432 0 0 0-.9-2.596 4.934 4.934 0 0 0-2.396-1.436.937.937 0 0 1-.214.855 3.453 3.453 0 0 1-.886.712l-.086.054a4.42 4.42 0 0 0-1.293 1.212c-.255.364-.391.8-.391 1.247.02 1.018.659 1.765 1.512 2.17.445.209.926.329 1.415.354.49.03.981-.04 1.445-.205a2.693 2.693 0 0 0 1.794-2.306v-.061zm-9.809 3.498H1.713v.011c-.942 0-1.705-.782-1.705-1.746V1.746c0-.965.763-1.747 1.705-1.747h5.581c.942 0 1.705.782 1.705 1.747v18.5c0 .965-.763 1.747-1.705 1.747zm.793-20.247a.806.806 0 0 0-.793-.812H1.711a.805.805 0 0 0-.793.812L.92 7.447c.244-.133.516-.203.793-.203h.484V5.432a.883.883 0 0 1 .241-.62.838.838 0 0 1 .509-.251V2.534c0-.37.293-.67.655-.67h3.176c.362 0 .655.3.655.67v.922c0 .37-.293.67-.655.67h-.507v.437c.193.022.372.11.509.251a.879.879 0 0 1 .252.618v1.812h.262c.277 0 .549.069.793.203V1.746zM5.821 3.211h.708v-.422H3.851v1.758h1.518v-.873c0-.256.202-.463.452-.463zm.311 2.269H3.09v1.764h3.042V5.48zm1.955 3.495a.807.807 0 0 0-.793-.812H1.711a.805.805 0 0 0-.793.817v.869h7.169v-.874zm0 1.808H.918v9.475a.804.804 0 0 0 .795.807h5.581a.807.807 0 0 0 .793-.812v-9.47z"/></svg><svg viewBox="0 0 15 15" id="ic_lk_menu_profile" xmlns="http://www.w3.org/2000/svg"><path d="M12.803 9.697a7.47 7.47 0 0 0-2.85-1.788 4.335 4.335 0 0 0 1.883-3.573A4.34 4.34 0 0 0 7.5 0a4.34 4.34 0 0 0-4.336 4.336c0 1.481.747 2.79 1.883 3.573a7.47 7.47 0 0 0-2.85 1.788A7.447 7.447 0 0 0 0 15h1.172A6.336 6.336 0 0 1 7.5 8.672 6.336 6.336 0 0 1 13.828 15H15c0-2.004-.78-3.887-2.197-5.303zM7.5 7.5a3.168 3.168 0 0 1-3.164-3.164A3.167 3.167 0 0 1 7.5 1.172a3.167 3.167 0 0 1 3.164 3.164A3.168 3.168 0 0 1 7.5 7.5z"/></svg><svg viewBox="0 0 14 19" id="ic_location" xmlns="http://www.w3.org/2000/svg"><path fill-rule="evenodd" d="M13.403 9.72a11.251 11.251 0 0 1-.808 1.517l-4.8 7.291c-.196.299-.487.469-.797.469-.311 0-.601-.17-.798-.469l-4.799-7.291A11.258 11.258 0 0 1 .592 9.72c-.024-.058-.594-1.427-.594-2.701 0-3.87 3.14-7.018 7-7.018 3.859 0 6.999 3.148 6.999 7.018 0 1.274-.57 2.644-.594 2.701zM6.998.827C3.592.827.822 3.604.822 7.019c0 1.103.522 2.364.529 2.381.164.392.503 1.025.738 1.383l4.799 7.29c.095.145.125.145.22 0l4.799-7.29c.235-.358.573-.99.737-1.383.006-.013.529-1.277.529-2.381 0-3.415-2.77-6.192-6.175-6.192zm0 9.907a3.716 3.716 0 0 1 0-7.431 3.715 3.715 0 0 1 3.705 3.716 3.714 3.714 0 0 1-3.705 3.715zm0-6.604a2.889 2.889 0 1 0 0 5.778 2.89 2.89 0 0 0 0-5.778z"/></svg><svg viewBox="0 0 15 19" id="ic_lock" xmlns="http://www.w3.org/2000/svg"><path d="M13.125 18.999H1.875A1.876 1.876 0 0 1 0 17.124v-7.75C0 8.34.841 7.499 1.875 7.499H2.5v-2.5c0-2.757 2.242-5 5-5 2.757 0 5 2.243 5 5v2.5h.625c1.033 0 1.875.841 1.875 1.875v7.75a1.877 1.877 0 0 1-1.875 1.875zm-1.875-14a3.755 3.755 0 0 0-3.75-3.75 3.755 3.755 0 0 0-3.75 3.75v2.5h7.5v-2.5zm2.5 4.375a.626.626 0 0 0-.625-.625H1.875a.626.626 0 0 0-.625.625v7.75c0 .345.281.625.625.625h11.25c.344 0 .625-.28.625-.625v-7.75z"/></svg><svg viewBox="0 0 47 47" id="ic_mob_menu1" xmlns="http://www.w3.org/2000/svg"><path d="M43 19L23.6 3.4c-.6-.5-1.6-.5-2.2 0L3 19c-.3.3-.5.6-.5 1v22.5c0 .8.7 1.4 1.6 1.4h13.5c.9 0 1.6-.6 1.6-1.4V32.1h7.6v10.4c0 .8.7 1.4 1.6 1.4h13.5c.9 0 1.6-.6 1.6-1.4V20.1c0-.4-.2-.8-.5-1.1zm-2.7 22.1H30V30.7c0-.8-.7-1.4-1.6-1.4H17.6c-.9 0-1.6.6-1.6 1.4v10.4H5.7V20.7L22.5 6.4l17.8 14.3v20.4z"/></svg><svg viewBox="0 0 47 47" id="ic_mob_menu2" xmlns="http://www.w3.org/2000/svg"><path d="M18 44h11c1.9 0 3.5-1.6 3.5-3.5V27.9c0-2.8-1.3-5.4-3.5-7.1v-8.2c0-.4-.3-.7-.7-.7h-1.6l-.5-1.5v-.3c.1-2.7.1-5.9-1.2-7.3-.4-.4-1-.7-1.6-.7-.6 0-1.2.2-1.6.7-1.3 1.4-1.3 4.6-1.2 7.3v.3l-.5 1.5h-1.6c-.4 0-.7.3-.7.7v8.2c-2.2 1.7-3.5 4.4-3.5 7.1v12.6C14.5 42.4 16 44 18 44zm2.7-29.4h5.6v4.2h-5.6v-4.2zm-3.4 13.3c0-2.5 1.2-4.9 3.2-6.3h.9v11.9c0 1.2.9 2.1 2.1 2.1 1.1 0 2.1-.9 2.1-2.1V21.6h.9c2 1.4 3.2 3.8 3.2 6.3v11.2c0 1.2-.9 2.1-2.1 2.1h-8.3c-1.1 0-2.1-.9-2.1-2.1V27.9z"/></svg><svg viewBox="0 0 47 47" id="ic_mob_menu3" xmlns="http://www.w3.org/2000/svg"><path d="M40.1 11.5h-7.3C32.3 6.7 28 3 23 3c-5 0-9.3 3.7-9.8 8.5H5.9c-.9 0-1.4.6-1.4 1.4v29.6c0 .7.7 1.4 1.4 1.4h34.2c.9 0 1.4-.6 1.4-1.4V12.8c0-.7-.7-1.3-1.4-1.3zM23 5.9c3.4 0 6.3 2.4 6.8 5.6H16.2c.5-3.3 3.4-5.6 6.8-5.6zM38.7 41H7.3V14.2H13v4.2c0 .7.7 1.4 1.4 1.4s1.4-.6 1.4-1.4v-4.2h13.9v4.2c0 .7.7 1.4 1.4 1.4s1.4-.6 1.4-1.4v-4.2h5.7V41h.5z"/></svg><svg viewBox="0 0 47 47" id="ic_mob_menu4" xmlns="http://www.w3.org/2000/svg"><path d="M38.4 6.1h-3.6V4.2c0-.7-.6-1.3-1.3-1.3-.7 0-1.3.6-1.3 1.3v1.9H14.8V4.2c0-.7-.6-1.3-1.3-1.3s-1.3.6-1.3 1.3v1.9H8.7c-2.8 0-5.2 2.3-5.2 5.2v26.6c0 2.8 2.3 5.2 5.2 5.2h29.7c2.8 0 5.2-2.3 5.2-5.2V11.3c-.1-2.9-2.4-5.2-5.2-5.2zM9.3 9l2.9.1v1.3c0 .7.6 1.3 1.3 1.3.7 0 1.3-.6 1.3-1.3V9.1h17.5v1.3c0 .7.6 1.3 1.3 1.3.7 0 1.2-.6 1.2-1.3V9.1l2.9.1c1.5 0 2.7 1.2 2.7 2.7v3.4L6.7 15v-3.4C6.7 10.2 7.9 9 9.3 9zm28.4 31.1L9.3 40c-1.5 0-2.7-1.2-2.7-2.7V18.1l33.6.1v19.3c.1 1.4-1.1 2.6-2.5 2.6z"/></svg><svg viewBox="0 0 47 47" id="ic_mob_menu5" xmlns="http://www.w3.org/2000/svg"><path d="M32.7 28.5v.1c-3.7-1.9-4-2.1-4.5-1.4-.3.5-1.3 1.6-1.6 2-.3.3-.6.4-1.1.1-.5-.3-2.1-.8-4-2.5-1.5-1.4-2.5-3-2.8-3.5-.5-.9.5-1 1.5-2.8.2-.4.1-.6 0-.9-.1-.3-1.1-2.8-1.5-3.8-.4-1-.8-.9-1.1-.9-1-.1-1.7-.1-2.3.6-2.7 3-2 6.2.3 9.5 4.5 6.1 6.9 7.2 11.3 8.7 1.2.4 2.3.3 3.1.2 1-.2 2.9-1.2 3.4-2.4.4-1.2.4-2.2.3-2.4-.2-.3-.5-.4-1-.6zm5-18.5c-12.8-12.8-34-3.6-34 14.4 0 3.6.9 7.1 2.7 10.2L3.5 45 14 42.2c13.2 7.3 29.5-2.4 29.5-17.8 0-5.5-2.1-10.6-5.8-14.4zM15.1 38.8l-.6-.4-6.3 1.7 1.7-6.2-.4-.6C2.7 22 10.6 7.4 23.6 7.4c4.4 0 8.6 1.8 11.7 5 3.1 3.2 4.8 7.4 4.8 11.9.1 13-13.9 21.2-25 14.5z"/></svg><svg viewBox="0 0 32 29" id="ic_online_order" xmlns="http://www.w3.org/2000/svg"><path stroke="currentColor" d="M6.5 3.5h19a3 3 0 0 1 3 3v16a3 3 0 0 1-3 3h-19a3 3 0 0 1-3-3v-16a3 3 0 0 1 3-3z" fill="none"/><path fill-rule="evenodd" fill="currentColor" d="M3.5 9.499v-1h25v1h-25zm18-8h1v5h-1v-5zm-12 0h1v5h-1v-5z"/></svg><svg viewBox="0 0 16 28" id="ic_phone" xmlns="http://www.w3.org/2000/svg"><path d="M14.299 27.999H1.701A1.695 1.695 0 0 1 0 26.312V1.686C0 .756.763-.001 1.701-.001h12.598c.938 0 1.701.757 1.701 1.687v24.627c0 .93-.763 1.686-1.701 1.686zm-12.598-.933h12.598c.419 0 .76-.338.76-.754v-2.98H.941v2.981c0 .415.34.753.76.753zM15.059 3.733H.941v18.666h14.118V3.733zm-.76-2.801H1.701c-.42 0-.76.339-.76.754v1.113h14.118V1.686a.758.758 0 0 0-.76-.754zm-.652 1.4h-.471a.469.469 0 0 1-.47-.466c0-.258.211-.467.47-.467h.471c.259 0 .47.209.47.467a.469.469 0 0 1-.47.466zm-3.294 0H5.647a.469.469 0 0 1-.471-.466c0-.258.211-.467.471-.467h4.706c.259 0 .47.209.47.467a.469.469 0 0 1-.47.466zM7.416 23.799h1.168c.715 0 1.298.578 1.298 1.287v.226c0 .709-.583 1.287-1.298 1.287H7.415a1.295 1.295 0 0 1-1.298-1.287v-.226c0-.709.583-1.287 1.299-1.287zm-.357 1.513c0 .195.159.354.357.354h1.168a.356.356 0 0 0 .357-.354v-.226a.355.355 0 0 0-.357-.353H7.416a.354.354 0 0 0-.357.353v.226z"/></svg><svg viewBox="0 0 16 16" id="ic_phone2" xmlns="http://www.w3.org/2000/svg"><path d="M15.559 11.856l-2.518-2.537a1.456 1.456 0 0 0-2.074-.002l-.002.002-1.444 1.459a.316.316 0 0 1-.408.035 16.249 16.249 0 0 1-2.21-1.874A16.596 16.596 0 0 1 5.226 6.96a.32.32 0 0 1 .032-.412l1.479-1.495a1.492 1.492 0 0 0 0-2.092L4.218.416a1.49 1.49 0 0 0-2.075 0l-.799.806A4.56 4.56 0 0 0 .233 5.841a13.618 13.618 0 0 0 1.641 3.36 17.149 17.149 0 0 0 2.151 2.645c.873.888 1.84 1.677 2.883 2.351a12.76 12.76 0 0 0 3.73 1.676c.339.084.689.126 1.04.126a4.516 4.516 0 0 0 3.196-1.358l.685-.693a1.49 1.49 0 0 0 0-2.092zm-.635 1.473l-.001.003.005-.014-.687.693a3.557 3.557 0 0 1-3.384.978 11.835 11.835 0 0 1-3.461-1.567 16.044 16.044 0 0 1-2.73-2.223 16.223 16.223 0 0 1-2.04-2.5 12.75 12.75 0 0 1-1.533-3.134 3.65 3.65 0 0 1 .897-3.7l.798-.806a.565.565 0 0 1 .807 0l2.519 2.545a.579.579 0 0 1 .002.813l-.002.002-1.479 1.495a1.227 1.227 0 0 0-.126 1.585c.535.742 1.127 1.44 1.771 2.088a17.16 17.16 0 0 0 2.331 1.978c.481.34 1.135.283 1.551-.135l1.43-1.468a.565.565 0 0 1 .807 0l2.524 2.555a.576.576 0 0 1 .001.812z"/></svg><svg viewBox="0 0 23 19" id="ic_repeat" xmlns="http://www.w3.org/2000/svg"><path d="M22.907 9.58a.857.857 0 0 1-.771.471h-.872C21.038 15.023 16.878 19 11.796 19a9.522 9.522 0 0 1-5.063-1.45.848.848 0 0 1-.157-1.314l1.241-1.262a.87.87 0 0 1 1.04-.149 6.072 6.072 0 0 0 2.939.766c3.181 0 5.794-2.448 6.016-5.54h-.846a.857.857 0 0 1-.771-.471.84.84 0 0 1 .082-.893l2.585-3.409a.858.858 0 0 1 .689-.341c.274 0 .525.125.689.341l2.586 3.409a.84.84 0 0 1 .081.893zm-5.891-6.566l-1.242 1.262a.868.868 0 0 1-1.039.149 6.075 6.075 0 0 0-2.939-.766c-3.181 0-5.795 2.448-6.016 5.54h.846c.328 0 .624.18.77.471a.84.84 0 0 1-.081.892l-2.585 3.41a.859.859 0 0 1-.689.34.86.86 0 0 1-.69-.34l-2.585-3.41a.84.84 0 0 1-.081-.892.857.857 0 0 1 .771-.471h.871C2.553 4.226 6.714.25 11.796.25c1.797 0 3.548.501 5.063 1.45a.848.848 0 0 1 .157 1.314z"/></svg><svg viewBox="0 0 26 26" id="ic_reply" xmlns="http://www.w3.org/2000/svg"><path d="M13 22.75a14.91 14.91 0 0 1-2.43-.206L4.875 26v-5.754C1.905 18.162 0 14.965 0 11.375 0 5.093 5.821 0 13 0c7.18 0 13 5.093 13 11.375S20.18 22.75 13 22.75zm0-21.125c-6.282 0-11.375 4.365-11.375 9.75 0 3.303 1.922 6.219 4.855 7.983l-.052 3.768 3.826-2.299c.88.187 1.797.298 2.746.298 6.282 0 11.375-4.366 11.375-9.75 0-5.385-5.093-9.75-11.375-9.75zm3.718 11.391h-.073a1.115 1.115 0 0 1 0-2.229h.073a1.114 1.114 0 0 1 0 2.229zm-4.022 0h-.072a1.115 1.115 0 0 1 0-2.229h.072a1.115 1.115 0 1 1 0 2.229zm-4.021 0h-.073a1.115 1.115 0 0 1 0-2.229h.073a1.115 1.115 0 0 1 0 2.229z"/></svg><svg viewBox="0 0 23 22" id="ic_search" xmlns="http://www.w3.org/2000/svg"><path fill-rule="evenodd" d="M21.748 20.536l-5.369-5.367a9.217 9.217 0 0 0 2.139-5.911C18.518 4.153 14.364 0 9.259 0 4.153 0-.001 4.153-.001 9.258c0 5.104 4.154 9.257 9.26 9.257a9.214 9.214 0 0 0 5.911-2.138l5.369 5.368a.853.853 0 0 0 1.209 0 .853.853 0 0 0 0-1.209zM1.71 9.258c0-4.162 3.386-7.547 7.549-7.547 4.162 0 7.548 3.385 7.548 7.547 0 4.161-3.386 7.547-7.548 7.547-4.163 0-7.549-3.386-7.549-7.547z"/></svg><svg viewBox="0 0 12 12" id="ic_share" xmlns="http://www.w3.org/2000/svg"><path d="M10.002 8.487c-.508 0-.964.178-1.311.465L3.935 6.448c.037-.135.06-.276.06-.421 0-.145-.023-.286-.06-.422L8.64 3.126c.357.302.834.488 1.362.488 1.104 0 2.001-.81 2.001-1.807C12.003.81 11.106 0 10.002 0 8.897 0 8 .81 8 1.807c0 .145.023.286.059.422L3.355 4.708a2.103 2.103 0 0 0-1.362-.488c-1.104 0-2.002.81-2.002 1.807 0 .997.898 1.807 2.002 1.807.528 0 1.005-.187 1.362-.488L8.11 9.849a1.524 1.524 0 0 0-.054.395c0 .97.871 1.756 1.946 1.756 1.074 0 1.945-.786 1.945-1.756s-.871-1.757-1.945-1.757z"/></svg><svg viewBox="0 0 22 25" id="ic_shop" xmlns="http://www.w3.org/2000/svg"><path fill-rule="evenodd" d="M20.981 5.858h-3.103C17.473 2.563 14.543-.001 11-.001S4.527 2.563 4.122 5.858H1.018C.456 5.858 0 6.296 0 6.835v17.187c0 .54.456.977 1.018.977h19.963c.563 0 1.019-.437 1.019-.977V6.835c0-.539-.456-.977-1.019-.977zM11 1.951c2.418 0 4.431 1.693 4.821 3.907H6.179C6.568 3.644 8.582 1.951 11 1.951zm8.963 21.095H2.037V7.811h2.037v2.93c0 .539.456.976 1.018.976.563 0 1.019-.437 1.019-.976v-2.93h9.778v2.93c0 .539.456.976 1.018.976.563 0 1.019-.437 1.019-.976v-2.93h2.037v15.235z"/></svg><svg viewBox="0 0 18 14" id="ic_success" xmlns="http://www.w3.org/2000/svg"><path d="M17.8 1.599l-10 11.999-.8-.599-.707.707-6-6 1.414-1.414 5.226 5.226L16.2.398l1.6 1.201z"/></svg><svg viewBox="0 0 19 19" id="ic_time" xmlns="http://www.w3.org/2000/svg"><path fill-rule="evenodd" d="M9.5 18.999c-5.238 0-9.5-4.262-9.5-9.5s4.262-9.5 9.5-9.5 9.5 4.262 9.5 9.5-4.262 9.5-9.5 9.5zm0-17.812c-4.584 0-8.313 3.729-8.313 8.312 0 4.584 3.729 8.313 8.313 8.313 4.583 0 8.312-3.729 8.312-8.313 0-4.583-3.729-8.312-8.312-8.312zm-.594 8.558V3.562h1.188v5.691l3.388 3.389-.839.839-3.737-3.736z"/></svg><svg viewBox="0 0 15 15" id="ic_user" xmlns="http://www.w3.org/2000/svg"><path d="M12.803 9.697a7.47 7.47 0 0 0-2.85-1.788 4.335 4.335 0 0 0 1.883-3.573A4.34 4.34 0 0 0 7.5 0a4.34 4.34 0 0 0-4.336 4.336c0 1.481.747 2.79 1.883 3.573a7.47 7.47 0 0 0-2.85 1.788A7.447 7.447 0 0 0 0 15h1.172A6.336 6.336 0 0 1 7.5 8.672 6.336 6.336 0 0 1 13.828 15H15c0-2.004-.78-3.887-2.197-5.303zM7.5 7.5a3.168 3.168 0 0 1-3.164-3.164A3.167 3.167 0 0 1 7.5 1.172a3.167 3.167 0 0 1 3.164 3.164A3.168 3.168 0 0 1 7.5 7.5z"/></svg><svg viewBox="0 0 18 19" id="ic_whatsapp" xmlns="http://www.w3.org/2000/svg"><path fill-rule="evenodd" d="M9-.001a9 9 0 0 1 0 18c-2.26 0-5.479-.648-9 1 2.021-3 0-7.289 0-10a9 9 0 0 1 9-9z"/><path fill-rule="evenodd" fill="#FFF" d="M10.511 11.441c-.198-.043-1.251-.682-2.032-1.376-.706-.661-1.236-1.464-1.236-1.464.457-.588.502-1.578.195-2.414-.377-1-1.455-1.693-2.506-1.233-.9.394-1.202 1.884-.895 2.721.306.836 1.24 2.562 2.724 4.048 1.339 1.29 4.275 3.37 5.773 2.844 1.074-.406 1.497-1.755.999-2.895-.238-.543-1.219-1.149-1.914-1.104-.597.132-1.008.829-1.108.873z"/></svg><svg viewBox="0 0 25 25" id="ic_whatsapp2" xmlns="http://www.w3.org/2000/svg"><path d="M12.5 24.999c-2.279 0-4.502-.616-6.443-1.785l-4.955 1.523a.484.484 0 0 1-.475-.113.483.483 0 0 1-.13-.473c.01-.034.902-3.305 1.396-5.035A12.447 12.447 0 0 1 0 12.5C0 5.606 5.607-.001 12.5-.001S25 5.606 25 12.5c0 6.892-5.607 12.499-12.5 12.499zm0-24.038C6.138.961.961 6.138.961 12.5a11.5 11.5 0 0 0 1.856 6.279c.076.116.098.26.059.394a489.476 489.476 0 0 0-1.22 4.389l4.326-1.331a.476.476 0 0 1 .397.052 11.519 11.519 0 0 0 6.121 1.754c6.362 0 11.538-5.175 11.538-11.537C24.038 6.138 18.862.961 12.5.961zm3.585 19.104c-.466 0-.963-.04-1.494-.119-4.666-.7-8.326-5.01-9.752-8.716C3.54 7.852 6.274 5.065 6.391 4.948a.478.478 0 0 1 .245-.131c.965-.193 1.597-.149 1.877.131.279.279 1.823 3.043 1.823 3.705 0 .642-.314 1.207-1.185 2.104.125.738.98 1.822 2.339 2.955 1.33 1.108 2.67 1.869 2.956 1.914.247-.051 1.092-.98 1.74-1.952a.525.525 0 0 1 .061-.073c.179-.181.652-.4 1.275-.089.223.111.528.309.949.585.551.36 1.307.855 2.194 1.347a.478.478 0 0 1 .241.499c-.456 2.741-2.077 4.122-4.821 4.122zm1.86-5.164c-.379-.247-.68-.442-.852-.53a.434.434 0 0 0-.179-.055c-.607.895-1.673 2.27-2.491 2.27-.94 0-6.25-3.493-6.25-6.009 0-.128.05-.251.14-.341.98-.979 1.062-1.33 1.062-1.583-.05-.386-1.184-2.527-1.511-2.983-.157-.024-.533.002-.889.062-.439.496-2.185 2.691-1.238 5.152.955 2.482 4.063 7.371 8.997 8.111 3.809.572 4.806-1.164 5.163-2.881a36.184 36.184 0 0 1-1.952-1.213z"/></svg></svg>